<svg version="1.1" viewBox="0.0 0.0 940.0 581.0" fill="none" stroke="none" stroke-linecap="square" stroke-miterlimit="10" width="940" height="581" xmlns:xlink="http://www.w3.org/1999/xlink" xmlns="http://www.w3.org/2000/svg"><path fill="#ffffff" d="M0 0L940.0 0L940.0 581.0L0 581.0L0 0Z" fill-rule="nonzero"/><path stroke="#cccccc" stroke-width="1.0" stroke-linecap="butt" d="M236.5 114.5L236.5 497.5" fill-rule="nonzero"/><path stroke="#cccccc" stroke-width="1.0" stroke-linecap="butt" d="M461.5 114.5L461.5 497.5" fill-rule="nonzero"/><path stroke="#cccccc" stroke-width="1.0" stroke-linecap="butt" d="M685.5 114.5L685.5 497.5" fill-rule="nonzero"/><path stroke="#cccccc" stroke-width="1.0" stroke-linecap="butt" d="M910.5 114.5L910.5 497.5" fill-rule="nonzero"/><path stroke="#333333" stroke-width="1.0" stroke-linecap="butt" d="M56.5 497.5L910.5 497.5" fill-rule="nonzero"/><path stroke="#cccccc" stroke-width="1.0" stroke-linecap="butt" d="M56.5 370.5L910.5 370.5" fill-rule="nonzero"/><path stroke="#cccccc" stroke-width="1.0" stroke-linecap="butt" d="M56.5 242.5L910.5 242.5" fill-rule="nonzero"/><path stroke="#cccccc" stroke-width="1.0" stroke-linecap="butt" d="M56.5 114.5L910.5 114.5" fill-rule="nonzero"/><clipPath id="id_0"><path d="M56.05 114.28333L910.95 114.28333L910.95 497.95L56.05 497.95L56.05 114.28333Z" clip-rule="nonzero"/></clipPath><path stroke="#4285f4" stroke-width="2.0" stroke-linecap="butt" clip-path="url(#id_0)" d="M56.05 497.00143L101.04474 494.30148L146.03947 490.1823L191.03421 484.46155L236.02895 476.68997L281.02368 467.90665L326.01843 456.73752L371.01315 444.83154L416.0079 431.51108L461.00262 415.6555L505.99738 398.89893L550.9921 379.43915L595.9868 358.7898L640.98157 337.7711L685.9763 313.61685L730.97107 288.32343L775.96576 248.36005L820.9605 234.09389L865.95526 202.26889L910.95 175.06424" fill-rule="nonzero"/><path stroke="#db4437" stroke-width="2.0" stroke-linecap="butt" clip-path="url(#id_0)" d="M56.05 496.7259L101.04474 496.58255L146.03947 496.04797L191.03421 495.1586L236.02895 494.62537L281.02368 493.47644L326.01843 493.10367L371.01315 492.31094L416.0079 491.65323L461.00262 490.90735L505.99738 489.89383L550.9921 489.20926L595.9868 488.6794L640.98157 487.85837L685.9763 487.07278L730.97107 485.9948L775.96576 485.23566L820.9605 484.76373L865.95526 483.78192L910.95 482.92822" fill-rule="nonzero"/><path stroke="#f4b400" stroke-width="2.0" stroke-linecap="butt" clip-path="url(#id_0)" d="M56.05 497.49463L101.04474 497.02628L146.03947 496.64792L191.03421 495.99918L236.02895 495.60007L281.02368 494.8574L326.01843 494.02893L371.01315 493.33865L416.0079 493.1825L461.00262 492.75308L505.99738 492.07733L550.9921 491.6148L595.9868 490.9482L640.98157 490.2497L685.9763 489.42422L730.97107 488.56982L775.96576 488.16635L820.9605 487.78317L865.95526 487.15436L910.95 486.58102" fill-rule="nonzero"/><path fill="#000000" fill-opacity="0.0" clip-path="url(#id_0)" d="M59.05 497.00143C59.05 498.6583 57.706856 500.00143 56.05 500.00143C54.393147 500.00143 53.05 498.6583 53.05 497.00143C53.05 495.3446 54.393147 494.00143 56.05 494.00143C57.706856 494.00143 59.05 495.3446 59.05 497.00143Z" fill-rule="nonzero"/><path fill="#000000" fill-opacity="0.0" clip-path="url(#id_0)" d="M104.04474 494.30148C104.04474 495.95834 102.70159 497.30148 101.04474 497.30148C99.387886 497.30148 98.04474 495.95834 98.04474 494.30148C98.04474 492.64462 99.387886 491.30148 101.04474 491.30148C102.70159 491.30148 104.04474 492.64462 104.04474 494.30148Z" fill-rule="nonzero"/><path fill="#000000" fill-opacity="0.0" clip-path="url(#id_0)" d="M149.03947 490.1823C149.03947 491.83917 147.69633 493.1823 146.03947 493.1823C144.38261 493.1823 143.03947 491.83917 143.03947 490.1823C143.03947 488.52545 144.38261 487.1823 146.03947 487.1823C147.69633 487.1823 149.03947 488.52545 149.03947 490.1823Z" fill-rule="nonzero"/><path fill="#000000" fill-opacity="0.0" clip-path="url(#id_0)" d="M194.03421 484.46155C194.03421 486.11838 192.69107 487.46155 191.03421 487.46155C189.37735 487.46155 188.03421 486.11838 188.03421 484.46155C188.03421 482.8047 189.37735 481.46155 191.03421 481.46155C192.69107 481.46155 194.03421 482.8047 194.03421 484.46155Z" fill-rule="nonzero"/><path fill="#000000" fill-opacity="0.0" clip-path="url(#id_0)" d="M239.02895 476.68997C239.02895 478.34683 237.6858 479.68997 236.02895 479.68997C234.37209 479.68997 233.02895 478.34683 233.02895 476.68997C233.02895 475.03314 234.37209 473.68997 236.02895 473.68997C237.6858 473.68997 239.02895 475.03314 239.02895 476.68997Z" fill-rule="nonzero"/><path fill="#000000" fill-opacity="0.0" clip-path="url(#id_0)" d="M284.02368 467.90665C284.02368 469.5635 282.68054 470.90665 281.02368 470.90665C279.36682 470.90665 278.02368 469.5635 278.02368 467.90665C278.02368 466.2498 279.36682 464.90665 281.02368 464.90665C282.68054 464.90665 284.02368 466.2498 284.02368 467.90665Z" fill-rule="nonzero"/><path fill="#000000" fill-opacity="0.0" clip-path="url(#id_0)" d="M329.01843 456.73752C329.01843 458.39438 327.67526 459.73752 326.01843 459.73752C324.36157 459.73752 323.01843 458.39438 323.01843 456.73752C323.01843 455.08066 324.36157 453.73752 326.01843 453.73752C327.67526 453.73752 329.01843 455.08066 329.01843 456.73752Z" fill-rule="nonzero"/><path fill="#000000" fill-opacity="0.0" clip-path="url(#id_0)" d="M374.01315 444.83154C374.01315 446.4884 372.67 447.83154 371.01315 447.83154C369.3563 447.83154 368.01315 446.4884 368.01315 444.83154C368.01315 443.1747 369.3563 441.83154 371.01315 441.83154C372.67 441.83154 374.01315 443.1747 374.01315 444.83154Z" fill-rule="nonzero"/><path fill="#000000" fill-opacity="0.0" clip-path="url(#id_0)" d="M419.0079 431.51108C419.0079 433.16794 417.66473 434.51108 416.0079 434.51108C414.35104 434.51108 413.0079 433.16794 413.0079 431.51108C413.0079 429.85422 414.35104 428.51108 416.0079 428.51108C417.66473 428.51108 419.0079 429.85422 419.0079 431.51108Z" fill-rule="nonzero"/><path fill="#000000" fill-opacity="0.0" clip-path="url(#id_0)" d="M464.00262 415.6555C464.00262 417.31235 462.6595 418.6555 461.00262 418.6555C459.34576 418.6555 458.00262 417.31235 458.00262 415.6555C458.00262 413.99863 459.34576 412.6555 461.00262 412.6555C462.6595 412.6555 464.00262 413.99863 464.00262 415.6555Z" fill-rule="nonzero"/><path fill="#000000" fill-opacity="0.0" clip-path="url(#id_0)" d="M508.99738 398.89893C508.99738 400.5558 507.65424 401.89893 505.99738 401.89893C504.3405 401.89893 502.99738 400.5558 502.99738 398.89893C502.99738 397.24207 504.3405 395.89893 505.99738 395.89893C507.65424 395.89893 508.99738 397.24207 508.99738 398.89893Z" fill-rule="nonzero"/><path fill="#000000" fill-opacity="0.0" clip-path="url(#id_0)" d="M553.9921 379.43915C553.9921 381.096 552.649 382.43915 550.9921 382.43915C549.33527 382.43915 547.9921 381.096 547.9921 379.43915C547.9921 377.7823 549.33527 376.43915 550.9921 376.43915C552.649 376.43915 553.9921 377.7823 553.9921 379.43915Z" fill-rule="nonzero"/><path fill="#000000" fill-opacity="0.0" clip-path="url(#id_0)" d="M598.9868 358.7898C598.9868 360.44666 597.6437 361.7898 595.9868 361.7898C594.33 361.7898 592.9868 360.44666 592.9868 358.7898C592.9868 357.13293 594.33 355.7898 595.9868 355.7898C597.6437 355.7898 598.9868 357.13293 598.9868 358.7898Z" fill-rule="nonzero"/><path fill="#000000" fill-opacity="0.0" clip-path="url(#id_0)" d="M643.98157 337.7711C643.98157 339.42795 642.6384 340.7711 640.98157 340.7711C639.3247 340.7711 637.98157 339.42795 637.98157 337.7711C637.98157 336.11423 639.3247 334.7711 640.98157 334.7711C642.6384 334.7711 643.98157 336.11423 643.98157 337.7711Z" fill-rule="nonzero"/><path fill="#000000" fill-opacity="0.0" clip-path="url(#id_0)" d="M688.9763 313.61685C688.9763 315.27368 687.6332 316.61685 685.9763 316.61685C684.31946 316.61685 682.9763 315.27368 682.9763 313.61685C682.9763 311.96 684.31946 310.61685 685.9763 310.61685C687.6332 310.61685 688.9763 311.96 688.9763 313.61685Z" fill-rule="nonzero"/><path fill="#000000" fill-opacity="0.0" clip-path="url(#id_0)" d="M733.97107 288.32343C733.97107 289.9803 732.6279 291.32343 730.97107 291.32343C729.3142 291.32343 727.97107 289.9803 727.97107 288.32343C727.97107 286.66656 729.3142 285.32343 730.97107 285.32343C732.6279 285.32343 733.97107 286.66656 733.97107 288.32343Z" fill-rule="nonzero"/><path fill="#000000" fill-opacity="0.0" clip-path="url(#id_0)" d="M778.96576 248.36005C778.96576 250.0169 777.6226 251.36005 775.96576 251.36005C774.30896 251.36005 772.96576 250.0169 772.96576 248.36005C772.96576 246.7032 774.30896 245.36005 775.96576 245.36005C777.6226 245.36005 778.96576 246.7032 778.96576 248.36005Z" fill-rule="nonzero"/><path fill="#000000" fill-opacity="0.0" clip-path="url(#id_0)" d="M823.9605 234.09389C823.9605 235.75075 822.6174 237.09389 820.9605 237.09389C819.30365 237.09389 817.9605 235.75075 817.9605 234.09389C817.9605 232.43704 819.30365 231.09389 820.9605 231.09389C822.6174 231.09389 823.9605 232.43704 823.9605 234.09389Z" fill-rule="nonzero"/><path fill="#000000" fill-opacity="0.0" clip-path="url(#id_0)" d="M868.95526 202.26889C868.95526 203.92575 867.6121 205.26889 865.95526 205.26889C864.2984 205.26889 862.95526 203.92575 862.95526 202.26889C862.95526 200.61205 864.2984 199.26889 865.95526 199.26889C867.6121 199.26889 868.95526 200.61205 868.95526 202.26889Z" fill-rule="nonzero"/><path fill="#000000" fill-opacity="0.0" clip-path="url(#id_0)" d="M913.95 175.06424C913.95 176.7211 912.6069 178.06424 910.95 178.06424C909.29315 178.06424 907.95 176.7211 907.95 175.06424C907.95 173.4074 909.29315 172.06424 910.95 172.06424C912.6069 172.06424 913.95 173.4074 913.95 175.06424Z" fill-rule="nonzero"/><path fill="#000000" fill-opacity="0.0" clip-path="url(#id_0)" d="M59.05 496.7259C59.05 498.38275 57.706856 499.7259 56.05 499.7259C54.393147 499.7259 53.05 498.38275 53.05 496.7259C53.05 495.06903 54.393147 493.7259 56.05 493.7259C57.706856 493.7259 59.05 495.06903 59.05 496.7259Z" fill-rule="nonzero"/><path fill="#000000" fill-opacity="0.0" clip-path="url(#id_0)" d="M104.04474 496.58255C104.04474 498.2394 102.70159 499.58255 101.04474 499.58255C99.387886 499.58255 98.04474 498.2394 98.04474 496.58255C98.04474 494.92572 99.387886 493.58255 101.04474 493.58255C102.70159 493.58255 104.04474 494.92572 104.04474 496.58255Z" fill-rule="nonzero"/><path fill="#000000" fill-opacity="0.0" clip-path="url(#id_0)" d="M149.03947 496.04797C149.03947 497.7048 147.69633 499.04797 146.03947 499.04797C144.38261 499.04797 143.03947 497.7048 143.03947 496.04797C143.03947 494.3911 144.38261 493.04797 146.03947 493.04797C147.69633 493.04797 149.03947 494.3911 149.03947 496.04797Z" fill-rule="nonzero"/><path fill="#000000" fill-opacity="0.0" clip-path="url(#id_0)" d="M194.03421 495.1586C194.03421 496.81546 192.69107 498.1586 191.03421 498.1586C189.37735 498.1586 188.03421 496.81546 188.03421 495.1586C188.03421 493.50174 189.37735 492.1586 191.03421 492.1586C192.69107 492.1586 194.03421 493.50174 194.03421 495.1586Z" fill-rule="nonzero"/><path fill="#000000" fill-opacity="0.0" clip-path="url(#id_0)" d="M239.02895 494.62537C239.02895 496.28223 237.6858 497.62537 236.02895 497.62537C234.37209 497.62537 233.02895 496.28223 233.02895 494.62537C233.02895 492.9685 234.37209 491.62537 236.02895 491.62537C237.6858 491.62537 239.02895 492.9685 239.02895 494.62537Z" fill-rule="nonzero"/><path fill="#000000" fill-opacity="0.0" clip-path="url(#id_0)" d="M284.02368 493.47644C284.02368 495.1333 282.68054 496.47644 281.02368 496.47644C279.36682 496.47644 278.02368 495.1333 278.02368 493.47644C278.02368 491.81958 279.36682 490.47644 281.02368 490.47644C282.68054 490.47644 284.02368 491.81958 284.02368 493.47644Z" fill-rule="nonzero"/><path fill="#000000" fill-opacity="0.0" clip-path="url(#id_0)" d="M329.01843 493.10367C329.01843 494.76053 327.67526 496.10367 326.01843 496.10367C324.36157 496.10367 323.01843 494.76053 323.01843 493.10367C323.01843 491.4468 324.36157 490.10367 326.01843 490.10367C327.67526 490.10367 329.01843 491.4468 329.01843 493.10367Z" fill-rule="nonzero"/><path fill="#000000" fill-opacity="0.0" clip-path="url(#id_0)" d="M374.01315 492.31094C374.01315 493.9678 372.67 495.31094 371.01315 495.31094C369.3563 495.31094 368.01315 493.9678 368.01315 492.31094C368.01315 490.65408 369.3563 489.31094 371.01315 489.31094C372.67 489.31094 374.01315 490.65408 374.01315 492.31094Z" fill-rule="nonzero"/><path fill="#000000" fill-opacity="0.0" clip-path="url(#id_0)" d="M419.0079 491.65323C419.0079 493.3101 417.66473 494.65323 416.0079 494.65323C414.35104 494.65323 413.0079 493.3101 413.0079 491.65323C413.0079 489.99637 414.35104 488.65323 416.0079 488.65323C417.66473 488.65323 419.0079 489.99637 419.0079 491.65323Z" fill-rule="nonzero"/><path fill="#000000" fill-opacity="0.0" clip-path="url(#id_0)" d="M464.00262 490.90735C464.00262 492.5642 462.6595 493.90735 461.00262 493.90735C459.34576 493.90735 458.00262 492.5642 458.00262 490.90735C458.00262 489.25052 459.34576 487.90735 461.00262 487.90735C462.6595 487.90735 464.00262 489.25052 464.00262 490.90735Z" fill-rule="nonzero"/><path fill="#000000" fill-opacity="0.0" clip-path="url(#id_0)" d="M508.99738 489.89383C508.99738 491.55066 507.65424 492.89383 505.99738 492.89383C504.3405 492.89383 502.99738 491.55066 502.99738 489.89383C502.99738 488.23697 504.3405 486.89383 505.99738 486.89383C507.65424 486.89383 508.99738 488.23697 508.99738 489.89383Z" fill-rule="nonzero"/><path fill="#000000" fill-opacity="0.0" clip-path="url(#id_0)" d="M553.9921 489.20926C553.9921 490.86612 552.649 492.20926 550.9921 492.20926C549.33527 492.20926 547.9921 490.86612 547.9921 489.20926C547.9921 487.5524 549.33527 486.20926 550.9921 486.20926C552.649 486.20926 553.9921 487.5524 553.9921 489.20926Z" fill-rule="nonzero"/><path fill="#000000" fill-opacity="0.0" clip-path="url(#id_0)" d="M598.9868 488.6794C598.9868 490.33627 597.6437 491.6794 595.9868 491.6794C594.33 491.6794 592.9868 490.33627 592.9868 488.6794C592.9868 487.02255 594.33 485.6794 595.9868 485.6794C597.6437 485.6794 598.9868 487.02255 598.9868 488.6794Z" fill-rule="nonzero"/><path fill="#000000" fill-opacity="0.0" clip-path="url(#id_0)" d="M643.98157 487.85837C643.98157 489.51523 642.6384 490.85837 640.98157 490.85837C639.3247 490.85837 637.98157 489.51523 637.98157 487.85837C637.98157 486.2015 639.3247 484.85837 640.98157 484.85837C642.6384 484.85837 643.98157 486.2015 643.98157 487.85837Z" fill-rule="nonzero"/><path fill="#000000" fill-opacity="0.0" clip-path="url(#id_0)" d="M688.9763 487.07278C688.9763 488.72964 687.6332 490.07278 685.9763 490.07278C684.31946 490.07278 682.9763 488.72964 682.9763 487.07278C682.9763 485.41595 684.31946 484.07278 685.9763 484.07278C687.6332 484.07278 688.9763 485.41595 688.9763 487.07278Z" fill-rule="nonzero"/><path fill="#000000" fill-opacity="0.0" clip-path="url(#id_0)" d="M733.97107 485.9948C733.97107 487.65167 732.6279 488.9948 730.97107 488.9948C729.3142 488.9948 727.97107 487.65167 727.97107 485.9948C727.97107 484.33795 729.3142 482.9948 730.97107 482.9948C732.6279 482.9948 733.97107 484.33795 733.97107 485.9948Z" fill-rule="nonzero"/><path fill="#000000" fill-opacity="0.0" clip-path="url(#id_0)" d="M778.96576 485.23566C778.96576 486.89252 777.6226 488.23566 775.96576 488.23566C774.30896 488.23566 772.96576 486.89252 772.96576 485.23566C772.96576 483.57883 774.30896 482.23566 775.96576 482.23566C777.6226 482.23566 778.96576 483.57883 778.96576 485.23566Z" fill-rule="nonzero"/><path fill="#000000" fill-opacity="0.0" clip-path="url(#id_0)" d="M823.9605 484.76373C823.9605 486.4206 822.6174 487.76373 820.9605 487.76373C819.30365 487.76373 817.9605 486.4206 817.9605 484.76373C817.9605 483.10687 819.30365 481.76373 820.9605 481.76373C822.6174 481.76373 823.9605 483.10687 823.9605 484.76373Z" fill-rule="nonzero"/><path fill="#000000" fill-opacity="0.0" clip-path="url(#id_0)" d="M868.95526 483.78192C868.95526 485.43875 867.6121 486.78192 865.95526 486.78192C864.2984 486.78192 862.95526 485.43875 862.95526 483.78192C862.95526 482.12506 864.2984 480.78192 865.95526 480.78192C867.6121 480.78192 868.95526 482.12506 868.95526 483.78192Z" fill-rule="nonzero"/><path fill="#000000" fill-opacity="0.0" clip-path="url(#id_0)" d="M913.95 482.92822C913.95 484.58508 912.6069 485.92822 910.95 485.92822C909.29315 485.92822 907.95 484.58508 907.95 482.92822C907.95 481.27136 909.29315 479.92822 910.95 479.92822C912.6069 479.92822 913.95 481.27136 913.95 482.92822Z" fill-rule="nonzero"/><path fill="#000000" fill-opacity="0.0" clip-path="url(#id_0)" d="M59.05 497.49463C59.05 499.1515 57.706856 500.49463 56.05 500.49463C54.393147 500.49463 53.05 499.1515 53.05 497.49463C53.05 495.8378 54.393147 494.49463 56.05 494.49463C57.706856 494.49463 59.05 495.8378 59.05 497.49463Z" fill-rule="nonzero"/><path fill="#000000" fill-opacity="0.0" clip-path="url(#id_0)" d="M104.04474 497.02628C104.04474 498.68314 102.70159 500.02628 101.04474 500.02628C99.387886 500.02628 98.04474 498.68314 98.04474 497.02628C98.04474 495.36942 99.387886 494.02628 101.04474 494.02628C102.70159 494.02628 104.04474 495.36942 104.04474 497.02628Z" fill-rule="nonzero"/><path fill="#000000" fill-opacity="0.0" clip-path="url(#id_0)" d="M149.03947 496.64792C149.03947 498.30478 147.69633 499.64792 146.03947 499.64792C144.38261 499.64792 143.03947 498.30478 143.03947 496.64792C143.03947 494.99106 144.38261 493.64792 146.03947 493.64792C147.69633 493.64792 149.03947 494.99106 149.03947 496.64792Z" fill-rule="nonzero"/><path fill="#000000" fill-opacity="0.0" clip-path="url(#id_0)" d="M194.03421 495.99918C194.03421 497.65604 192.69107 498.99918 191.03421 498.99918C189.37735 498.99918 188.03421 497.65604 188.03421 495.99918C188.03421 494.34232 189.37735 492.99918 191.03421 492.99918C192.69107 492.99918 194.03421 494.34232 194.03421 495.99918Z" fill-rule="nonzero"/><path fill="#000000" fill-opacity="0.0" clip-path="url(#id_0)" d="M239.02895 495.60007C239.02895 497.25693 237.6858 498.60007 236.02895 498.60007C234.37209 498.60007 233.02895 497.25693 233.02895 495.60007C233.02895 493.9432 234.37209 492.60007 236.02895 492.60007C237.6858 492.60007 239.02895 493.9432 239.02895 495.60007Z" fill-rule="nonzero"/><path fill="#000000" fill-opacity="0.0" clip-path="url(#id_0)" d="M284.02368 494.8574C284.02368 496.51425 282.68054 497.8574 281.02368 497.8574C279.36682 497.8574 278.02368 496.51425 278.02368 494.8574C278.02368 493.20053 279.36682 491.8574 281.02368 491.8574C282.68054 491.8574 284.02368 493.20053 284.02368 494.8574Z" fill-rule="nonzero"/><path fill="#000000" fill-opacity="0.0" clip-path="url(#id_0)" d="M329.01843 494.02893C329.01843 495.6858 327.67526 497.02893 326.01843 497.02893C324.36157 497.02893 323.01843 495.6858 323.01843 494.02893C323.01843 492.37207 324.36157 491.02893 326.01843 491.02893C327.67526 491.02893 329.01843 492.37207 329.01843 494.02893Z" fill-rule="nonzero"/><path fill="#000000" fill-opacity="0.0" clip-path="url(#id_0)" d="M374.01315 493.33865C374.01315 494.9955 372.67 496.33865 371.01315 496.33865C369.3563 496.33865 368.01315 494.9955 368.01315 493.33865C368.01315 491.6818 369.3563 490.33865 371.01315 490.33865C372.67 490.33865 374.01315 491.6818 374.01315 493.33865Z" fill-rule="nonzero"/><path fill="#000000" fill-opacity="0.0" clip-path="url(#id_0)" d="M419.0079 493.1825C419.0079 494.83932 417.66473 496.1825 416.0079 496.1825C414.35104 496.1825 413.0079 494.83932 413.0079 493.1825C413.0079 491.52563 414.35104 490.1825 416.0079 490.1825C417.66473 490.1825 419.0079 491.52563 419.0079 493.1825Z" fill-rule="nonzero"/><path fill="#000000" fill-opacity="0.0" clip-path="url(#id_0)" d="M464.00262 492.75308C464.00262 494.40994 462.6595 495.75308 461.00262 495.75308C459.34576 495.75308 458.00262 494.40994 458.00262 492.75308C458.00262 491.09622 459.34576 489.75308 461.00262 489.75308C462.6595 489.75308 464.00262 491.09622 464.00262 492.75308Z" fill-rule="nonzero"/><path fill="#000000" fill-opacity="0.0" clip-path="url(#id_0)" d="M508.99738 492.07733C508.99738 493.7342 507.65424 495.07733 505.99738 495.07733C504.3405 495.07733 502.99738 493.7342 502.99738 492.07733C502.99738 490.4205 504.3405 489.07733 505.99738 489.07733C507.65424 489.07733 508.99738 490.4205 508.99738 492.07733Z" fill-rule="nonzero"/><path fill="#000000" fill-opacity="0.0" clip-path="url(#id_0)" d="M553.9921 491.6148C553.9921 493.27164 552.649 494.6148 550.9921 494.6148C549.33527 494.6148 547.9921 493.27164 547.9921 491.6148C547.9921 489.95795 549.33527 488.6148 550.9921 488.6148C552.649 488.6148 553.9921 489.95795 553.9921 491.6148Z" fill-rule="nonzero"/><path fill="#000000" fill-opacity="0.0" clip-path="url(#id_0)" d="M598.9868 490.9482C598.9868 492.60507 597.6437 493.9482 595.9868 493.9482C594.33 493.9482 592.9868 492.60507 592.9868 490.9482C592.9868 489.29135 594.33 487.9482 595.9868 487.9482C597.6437 487.9482 598.9868 489.29135 598.9868 490.9482Z" fill-rule="nonzero"/><path fill="#000000" fill-opacity="0.0" clip-path="url(#id_0)" d="M643.98157 490.2497C643.98157 491.90652 642.6384 493.2497 640.98157 493.2497C639.3247 493.2497 637.98157 491.90652 637.98157 490.2497C637.98157 488.59283 639.3247 487.2497 640.98157 487.2497C642.6384 487.2497 643.98157 488.59283 643.98157 490.2497Z" fill-rule="nonzero"/><path fill="#000000" fill-opacity="0.0" clip-path="url(#id_0)" d="M688.9763 489.42422C688.9763 491.0811 687.6332 492.42422 685.9763 492.42422C684.31946 492.42422 682.9763 491.0811 682.9763 489.42422C682.9763 487.7674 684.31946 486.42422 685.9763 486.42422C687.6332 486.42422 688.9763 487.7674 688.9763 489.42422Z" fill-rule="nonzero"/><path fill="#000000" fill-opacity="0.0" clip-path="url(#id_0)" d="M733.97107 488.56982C733.97107 490.22665 732.6279 491.56982 730.97107 491.56982C729.3142 491.56982 727.97107 490.22665 727.97107 488.56982C727.97107 486.91296 729.3142 485.56982 730.97107 485.56982C732.6279 485.56982 733.97107 486.91296 733.97107 488.56982Z" fill-rule="nonzero"/><path fill="#000000" fill-opacity="0.0" clip-path="url(#id_0)" d="M778.96576 488.16635C778.96576 489.8232 777.6226 491.16635 775.96576 491.16635C774.30896 491.16635 772.96576 489.8232 772.96576 488.16635C772.96576 486.5095 774.30896 485.16635 775.96576 485.16635C777.6226 485.16635 778.96576 486.5095 778.96576 488.16635Z" fill-rule="nonzero"/><path fill="#000000" fill-opacity="0.0" clip-path="url(#id_0)" d="M823.9605 487.78317C823.9605 489.44003 822.6174 490.78317 820.9605 490.78317C819.30365 490.78317 817.9605 489.44003 817.9605 487.78317C817.9605 486.1263 819.30365 484.78317 820.9605 484.78317C822.6174 484.78317 823.9605 486.1263 823.9605 487.78317Z" fill-rule="nonzero"/><path fill="#000000" fill-opacity="0.0" clip-path="url(#id_0)" d="M868.95526 487.15436C868.95526 488.81122 867.6121 490.15436 865.95526 490.15436C864.2984 490.15436 862.95526 488.81122 862.95526 487.15436C862.95526 485.4975 864.2984 484.15436 865.95526 484.15436C867.6121 484.15436 868.95526 485.4975 868.95526 487.15436Z" fill-rule="nonzero"/><path fill="#000000" fill-opacity="0.0" clip-path="url(#id_0)" d="M913.95 486.58102C913.95 488.23785 912.6069 489.58102 910.95 489.58102C909.29315 489.58102 907.95 488.23785 907.95 486.58102C907.95 484.92416 909.29315 483.58102 910.95 483.58102C912.6069 483.58102 913.95 484.92416 913.95 486.58102Z" fill-rule="nonzero"/><path fill="#424242" d="M481.84375 542.60626L481.875 543.40314Q482.60938 542.4969 483.78125 542.4969Q485.79688 542.4969 485.8125 544.7625L485.8125 548.95L484.71875 548.95L484.71875 544.7469Q484.71875 544.075 484.40625 543.7469Q484.10938 543.41876 483.45312 543.41876Q482.92188 543.41876 482.51562 543.7Q482.125 543.98126 481.90625 544.4344L481.90625 548.95L480.82812 548.95L480.82812 542.60626L481.84375 542.60626Z" fill-rule="nonzero"/><path fill="#757575" d="M49.1125 498.8094Q49.1125 500.71564 48.45625 501.65314Q47.815624 502.575 46.425 502.575Q45.065624 502.575 44.409374 501.66876Q43.753124 500.7625 43.721874 498.95L43.721874 497.5125Q43.721874 495.6219 44.3625 494.71564Q45.01875 493.79376 46.409374 493.79376Q47.784374 493.79376 48.440624 494.6844Q49.096874 495.5594 49.1125 497.40314L49.1125 498.8094ZM48.01875 497.325Q48.01875 495.95 47.628124 495.325Q47.253124 494.6844 46.409374 494.6844Q45.58125 494.6844 45.190624 495.325Q44.815624 495.95 44.815624 497.2469L44.815624 498.98126Q44.815624 500.35626 45.20625 501.02814Q45.6125 501.6844 46.425 501.6844Q47.221874 501.6844 47.6125 501.0594Q48.003124 500.4344 48.01875 499.10626L48.01875 497.325Z" fill-rule="nonzero"/><path fill="#757575" d="M44.253124 370.27985L44.690624 366.02985L49.065624 366.02985L49.065624 367.02985L45.6125 367.02985L45.346874 369.35797Q45.9875 368.98297 46.784374 368.98297Q47.940624 368.98297 48.628124 369.76422Q49.315624 370.52985 49.315624 371.84235Q49.315624 373.15485 48.596874 373.92047Q47.89375 374.6861 46.6125 374.6861Q45.4875 374.6861 44.76875 374.0611Q44.05 373.42047 43.95625 372.3111L44.971874 372.3111Q45.08125 373.04547 45.503124 373.42047Q45.925 373.79547 46.6125 373.79547Q47.3625 373.79547 47.8 373.27985Q48.2375 372.76422 48.2375 371.85797Q48.2375 370.9986 47.76875 370.48297Q47.3 369.96735 46.51875 369.96735Q45.815624 369.96735 45.409374 370.26422L45.128124 370.4986L44.253124 370.27985Z" fill-rule="nonzero"/><path fill="#757575" d="M40.315624 246.67223L39.2375 246.67223L39.2375 239.45348L37.05 240.25035L37.05 239.26598L40.159374 238.0941L40.315624 238.0941L40.315624 246.67223ZM49.1125 243.0316Q49.1125 244.93785 48.45625 245.87535Q47.815624 246.79723 46.425 246.79723Q45.065624 246.79723 44.409374 245.89098Q43.753124 244.98473 43.721874 243.17223L43.721874 241.73473Q43.721874 239.8441 44.3625 238.93785Q45.01875 238.01598 46.409374 238.01598Q47.784374 238.01598 48.440624 238.9066Q49.096874 239.7816 49.1125 241.62535L49.1125 243.0316ZM48.01875 241.54723Q48.01875 240.17223 47.628124 239.54723Q47.253124 238.9066 46.409374 238.9066Q45.58125 238.9066 45.190624 239.54723Q44.815624 240.17223 44.815624 241.4691L44.815624 243.20348Q44.815624 244.57848 45.20625 245.25035Q45.6125 245.9066 46.425 245.9066Q47.221874 245.9066 47.6125 245.2816Q48.003124 244.6566 48.01875 243.32848L48.01875 241.54723Z" fill-rule="nonzero"/><path fill="#757575" d="M40.315624 118.78333L39.2375 118.78333L39.2375 111.56458L37.05 112.36146L37.05 111.37708L40.159374 110.20521L40.315624 110.20521L40.315624 118.78333ZM44.253124 114.50208L44.690624 110.25208L49.065624 110.25208L49.065624 111.25208L45.6125 111.25208L45.346874 113.58021Q45.9875 113.20521 46.784374 113.20521Q47.940624 113.20521 48.628124 113.98646Q49.315624 114.75208 49.315624 116.06458Q49.315624 117.37708 48.596874 118.14271Q47.89375 118.90833 46.6125 118.90833Q45.4875 118.90833 44.76875 118.28333Q44.05 117.64271 43.95625 116.53333L44.971874 116.53333Q45.08125 117.26771 45.503124 117.64271Q45.925 118.01771 46.6125 118.01771Q47.3625 118.01771 47.8 117.50208Q48.2375 116.98646 48.2375 116.08021Q48.2375 115.22083 47.76875 114.70521Q47.3 114.18958 46.51875 114.18958Q45.815624 114.18958 45.409374 114.48646L45.128124 114.72083L44.253124 114.50208Z" fill-rule="nonzero"/><path fill="#757575" d="M226.73207 511.66876L227.16957 507.41876L231.54457 507.41876L231.54457 508.41876L228.09145 508.41876L227.82582 510.7469Q228.46645 510.3719 229.26332 510.3719Q230.41957 510.3719 231.10707 511.15314Q231.79457 511.91876 231.79457 513.23126Q231.79457 514.54376 231.07582 515.3094Q230.3727 516.075 229.09145 516.075Q227.96645 516.075 227.2477 515.45Q226.52895 514.8094 226.4352 513.7L227.45082 513.7Q227.5602 514.4344 227.98207 514.8094Q228.40395 515.1844 229.09145 515.1844Q229.84145 515.1844 230.27895 514.66876Q230.71645 514.15314 230.71645 513.2469Q230.71645 512.3875 230.2477 511.8719Q229.77895 511.35626 228.9977 511.35626Q228.29457 511.35626 227.88832 511.65314L227.60707 511.8875L226.73207 511.66876ZM238.59145 512.3094Q238.59145 514.21564 237.9352 515.15314Q237.29457 516.075 235.90395 516.075Q234.54457 516.075 233.88832 515.16876Q233.23207 514.2625 233.20082 512.45L233.20082 511.0125Q233.20082 509.1219 233.84145 508.21564Q234.4977 507.29376 235.88832 507.29376Q237.26332 507.29376 237.91957 508.1844Q238.57582 509.0594 238.59145 510.90314L238.59145 512.3094ZM237.4977 510.825Q237.4977 509.45 237.10707 508.825Q236.73207 508.1844 235.88832 508.1844Q235.0602 508.1844 234.66957 508.825Q234.29457 509.45 234.29457 510.7469L234.29457 512.48126Q234.29457 513.85626 234.6852 514.52814Q235.09145 515.1844 235.90395 515.1844Q236.70082 515.1844 237.09145 514.5594Q237.48207 513.9344 237.4977 512.60626L237.4977 510.825ZM245.59145 512.3094Q245.59145 514.21564 244.9352 515.15314Q244.29457 516.075 242.90395 516.075Q241.54457 516.075 240.88832 515.16876Q240.23207 514.2625 240.20082 512.45L240.20082 511.0125Q240.20082 509.1219 240.84145 508.21564Q241.4977 507.29376 242.88832 507.29376Q244.26332 507.29376 244.91957 508.1844Q245.57582 509.0594 245.59145 510.90314L245.59145 512.3094ZM244.4977 510.825Q244.4977 509.45 244.10707 508.825Q243.73207 508.1844 242.88832 508.1844Q242.0602 508.1844 241.66957 508.825Q241.29457 509.45 241.29457 510.7469L241.29457 512.48126Q241.29457 513.85626 241.6852 514.52814Q242.09145 515.1844 242.90395 515.1844Q243.70082 515.1844 244.09145 514.5594Q244.48207 513.9344 244.4977 512.60626L244.4977 510.825Z" fill-rule="nonzero"/><path fill="#757575" d="M451.26825 515.95L450.19012 515.95L450.19012 508.73126L448.00262 509.52814L448.00262 508.54376L451.112 507.3719L451.26825 507.3719L451.26825 515.95ZM460.06512 512.3094Q460.06512 514.21564 459.40887 515.15314Q458.76825 516.075 457.37762 516.075Q456.01825 516.075 455.362 515.16876Q454.70575 514.2625 454.6745 512.45L454.6745 511.0125Q454.6745 509.1219 455.31512 508.21564Q455.97137 507.29376 457.362 507.29376Q458.737 507.29376 459.39325 508.1844Q460.0495 509.0594 460.06512 510.90314L460.06512 512.3094ZM458.97137 510.825Q458.97137 509.45 458.58075 508.825Q458.20575 508.1844 457.362 508.1844Q456.53387 508.1844 456.14325 508.825Q455.76825 509.45 455.76825 510.7469L455.76825 512.48126Q455.76825 513.85626 456.15887 514.52814Q456.56512 515.1844 457.37762 515.1844Q458.1745 515.1844 458.56512 514.5594Q458.95575 513.9344 458.97137 512.60626L458.97137 510.825ZM467.06512 512.3094Q467.06512 514.21564 466.40887 515.15314Q465.76825 516.075 464.37762 516.075Q463.01825 516.075 462.362 515.16876Q461.70575 514.2625 461.6745 512.45L461.6745 511.0125Q461.6745 509.1219 462.31512 508.21564Q462.97137 507.29376 464.362 507.29376Q465.737 507.29376 466.39325 508.1844Q467.0495 509.0594 467.06512 510.90314L467.06512 512.3094ZM465.97137 510.825Q465.97137 509.45 465.58075 508.825Q465.20575 508.1844 464.362 508.1844Q463.53387 508.1844 463.14325 508.825Q462.76825 509.45 462.76825 510.7469L462.76825 512.48126Q462.76825 513.85626 463.15887 514.52814Q463.56512 515.1844 464.37762 515.1844Q465.1745 515.1844 465.56512 514.5594Q465.95575 513.9344 465.97137 512.60626L465.97137 510.825ZM474.06512 512.3094Q474.06512 514.21564 473.40887 515.15314Q472.76825 516.075 471.37762 516.075Q470.01825 516.075 469.362 515.16876Q468.70575 514.2625 468.6745 512.45L468.6745 511.0125Q468.6745 509.1219 469.31512 508.21564Q469.97137 507.29376 471.362 507.29376Q472.737 507.29376 473.39325 508.1844Q474.0495 509.0594 474.06512 510.90314L474.06512 512.3094ZM472.97137 510.825Q472.97137 509.45 472.58075 508.825Q472.20575 508.1844 471.362 508.1844Q470.53387 508.1844 470.14325 508.825Q469.76825 509.45 469.76825 510.7469L469.76825 512.48126Q469.76825 513.85626 470.15887 514.52814Q470.56512 515.1844 471.37762 515.1844Q472.1745 515.1844 472.56512 514.5594Q472.95575 513.9344 472.97137 512.60626L472.97137 510.825Z" fill-rule="nonzero"/><path fill="#757575" d="M676.24194 515.95L675.1638 515.95L675.1638 508.73126L672.9763 509.52814L672.9763 508.54376L676.0857 507.3719L676.24194 507.3719L676.24194 515.95ZM680.17944 511.66876L680.61694 507.41876L684.99194 507.41876L684.99194 508.41876L681.5388 508.41876L681.2732 510.7469Q681.9138 510.3719 682.7107 510.3719Q683.86694 510.3719 684.55444 511.15314Q685.24194 511.91876 685.24194 513.23126Q685.24194 514.54376 684.5232 515.3094Q683.82007 516.075 682.5388 516.075Q681.4138 516.075 680.69507 515.45Q679.9763 514.8094 679.88257 513.7L680.8982 513.7Q681.00757 514.4344 681.42944 514.8094Q681.8513 515.1844 682.5388 515.1844Q683.2888 515.1844 683.7263 514.66876Q684.1638 514.15314 684.1638 513.2469Q684.1638 512.3875 683.69507 511.8719Q683.2263 511.35626 682.44507 511.35626Q681.74194 511.35626 681.3357 511.65314L681.05444 511.8875L680.17944 511.66876ZM692.0388 512.3094Q692.0388 514.21564 691.38257 515.15314Q690.74194 516.075 689.3513 516.075Q687.99194 516.075 687.3357 515.16876Q686.67944 514.2625 686.6482 512.45L686.6482 511.0125Q686.6482 509.1219 687.2888 508.21564Q687.94507 507.29376 689.3357 507.29376Q690.7107 507.29376 691.36694 508.1844Q692.0232 509.0594 692.0388 510.90314L692.0388 512.3094ZM690.94507 510.825Q690.94507 509.45 690.55444 508.825Q690.17944 508.1844 689.3357 508.1844Q688.50757 508.1844 688.11694 508.825Q687.74194 509.45 687.74194 510.7469L687.74194 512.48126Q687.74194 513.85626 688.13257 514.52814Q688.5388 515.1844 689.3513 515.1844Q690.1482 515.1844 690.5388 514.5594Q690.92944 513.9344 690.94507 512.60626L690.94507 510.825ZM699.0388 512.3094Q699.0388 514.21564 698.38257 515.15314Q697.74194 516.075 696.3513 516.075Q694.99194 516.075 694.3357 515.16876Q693.67944 514.2625 693.6482 512.45L693.6482 511.0125Q693.6482 509.1219 694.2888 508.21564Q694.94507 507.29376 696.3357 507.29376Q697.7107 507.29376 698.36694 508.1844Q699.0232 509.0594 699.0388 510.90314L699.0388 512.3094ZM697.94507 510.825Q697.94507 509.45 697.55444 508.825Q697.17944 508.1844 696.3357 508.1844Q695.50757 508.1844 695.11694 508.825Q694.74194 509.45 694.74194 510.7469L694.74194 512.48126Q694.74194 513.85626 695.13257 514.52814Q695.5388 515.1844 696.3513 515.1844Q697.1482 515.1844 697.5388 514.5594Q697.92944 513.9344 697.94507 512.60626L697.94507 510.825Z" fill-rule="nonzero"/><path fill="#757575" d="M903.2469 515.95L897.65314 515.95L897.65314 515.16876L900.60626 511.8875Q901.2625 511.1375 901.5125 510.6844Q901.7625 510.21564 901.7625 509.71564Q901.7625 509.04376 901.35626 508.6219Q900.96564 508.1844 900.27814 508.1844Q899.48126 508.1844 899.02814 508.65314Q898.575 509.10626 898.575 509.9344L897.4969 509.9344Q897.4969 508.7469 898.2469 508.02814Q899.0125 507.29376 900.27814 507.29376Q901.48126 507.29376 902.16876 507.91876Q902.85626 508.54376 902.85626 509.59064Q902.85626 510.84064 901.2469 512.59064L898.96564 515.0594L903.2469 515.0594L903.2469 515.95ZM910.0125 512.3094Q910.0125 514.21564 909.35626 515.15314Q908.71564 516.075 907.325 516.075Q905.96564 516.075 905.3094 515.16876Q904.65314 514.2625 904.6219 512.45L904.6219 511.0125Q904.6219 509.1219 905.2625 508.21564Q905.91876 507.29376 907.3094 507.29376Q908.6844 507.29376 909.34064 508.1844Q909.9969 509.0594 910.0125 510.90314L910.0125 512.3094ZM908.91876 510.825Q908.91876 509.45 908.52814 508.825Q908.15314 508.1844 907.3094 508.1844Q906.48126 508.1844 906.09064 508.825Q905.71564 509.45 905.71564 510.7469L905.71564 512.48126Q905.71564 513.85626 906.10626 514.52814Q906.5125 515.1844 907.325 515.1844Q908.1219 515.1844 908.5125 514.5594Q908.90314 513.9344 908.91876 512.60626L908.91876 510.825ZM917.0125 512.3094Q917.0125 514.21564 916.35626 515.15314Q915.71564 516.075 914.325 516.075Q912.96564 516.075 912.3094 515.16876Q911.65314 514.2625 911.6219 512.45L911.6219 511.0125Q911.6219 509.1219 912.2625 508.21564Q912.91876 507.29376 914.3094 507.29376Q915.6844 507.29376 916.34064 508.1844Q916.9969 509.0594 917.0125 510.90314L917.0125 512.3094ZM915.91876 510.825Q915.91876 509.45 915.52814 508.825Q915.15314 508.1844 914.3094 508.1844Q913.48126 508.1844 913.09064 508.825Q912.71564 509.45 912.71564 510.7469L912.71564 512.48126Q912.71564 513.85626 913.10626 514.52814Q913.5125 515.1844 914.325 515.1844Q915.1219 515.1844 915.5125 514.5594Q915.90314 513.9344 915.91876 512.60626L915.91876 510.825ZM924.0125 512.3094Q924.0125 514.21564 923.35626 515.15314Q922.71564 516.075 921.325 516.075Q919.96564 516.075 919.3094 515.16876Q918.65314 514.2625 918.6219 512.45L918.6219 511.0125Q918.6219 509.1219 919.2625 508.21564Q919.91876 507.29376 921.3094 507.29376Q922.6844 507.29376 923.34064 508.1844Q923.9969 509.0594 924.0125 510.90314L924.0125 512.3094ZM922.91876 510.825Q922.91876 509.45 922.52814 508.825Q922.15314 508.1844 921.3094 508.1844Q920.48126 508.1844 920.09064 508.825Q919.71564 509.45 919.71564 510.7469L919.71564 512.48126Q919.71564 513.85626 920.10626 514.52814Q920.5125 515.1844 921.325 515.1844Q922.1219 515.1844 922.5125 514.5594Q922.90314 513.9344 922.91876 512.60626L922.91876 510.825Z" fill-rule="nonzero"/><path stroke="#4285f4" stroke-width="4.0" stroke-linecap="butt" d="M307.5 79.916664L319.5 79.916664" fill-rule="nonzero"/><path fill="#757575" d="M329.70312 84.416664L328.57812 84.416664L328.57812 75.885414L329.70312 75.885414L329.70312 84.416664ZM332.34375 78.072914L332.375 78.86979Q333.10938 77.96354 334.28125 77.96354Q336.29688 77.96354 336.3125 80.229164L336.3125 84.416664L335.21875 84.416664L335.21875 80.21354Q335.21875 79.541664 334.90625 79.21354Q334.60938 78.885414 333.95312 78.885414Q333.42188 78.885414 333.01562 79.166664Q332.625 79.447914 332.40625 79.90104L332.40625 84.416664L331.32812 84.416664L331.32812 78.072914L332.34375 78.072914ZM342.01562 82.729164Q342.01562 82.291664 341.67188 82.05729Q341.34375 81.80729 340.51562 81.635414Q339.70312 81.46354 339.21875 81.21354Q338.73438 80.96354 338.5 80.635414Q338.28125 80.291664 338.28125 79.822914Q338.28125 79.041664 338.9375 78.510414Q339.59375 77.96354 340.625 77.96354Q341.70312 77.96354 342.35938 78.52604Q343.03125 79.072914 343.03125 79.93229L341.95312 79.93229Q341.95312 79.49479 341.5625 79.18229Q341.1875 78.854164 340.625 78.854164Q340.03125 78.854164 339.6875 79.11979Q339.35938 79.36979 339.35938 79.77604Q339.35938 80.166664 339.67188 80.36979Q339.98438 80.572914 340.79688 80.760414Q341.60938 80.93229 342.10938 81.18229Q342.60938 81.43229 342.84375 81.791664Q343.09375 82.15104 343.09375 82.65104Q343.09375 83.510414 342.40625 84.02604Q341.73438 84.541664 340.65625 84.541664Q339.89062 84.541664 339.29688 84.27604Q338.71875 83.99479 338.39062 83.510414Q338.0625 83.02604 338.0625 82.46354L339.14062 82.46354Q339.17188 83.010414 339.57812 83.33854Q339.98438 83.65104 340.65625 83.65104Q341.26562 83.65104 341.64062 83.40104Q342.01562 83.15104 342.01562 82.729164ZM346.95312 84.541664Q345.65625 84.541664 344.84375 83.697914Q344.04688 82.83854 344.04688 81.416664L344.04688 81.229164Q344.04688 80.27604 344.40625 79.541664Q344.76562 78.791664 345.40625 78.385414Q346.0625 77.96354 346.8125 77.96354Q348.04688 77.96354 348.73438 78.77604Q349.42188 79.58854 349.42188 81.104164L349.42188 81.55729L345.125 81.55729Q345.15625 82.49479 345.67188 83.072914Q346.20312 83.65104 347.01562 83.65104Q347.57812 83.65104 347.96875 83.416664Q348.375 83.18229 348.6875 82.791664L349.34375 83.30729Q348.54688 84.541664 346.95312 84.541664ZM346.8125 78.854164Q346.15625 78.854164 345.70312 79.33854Q345.26562 79.80729 345.17188 80.666664L348.34375 80.666664L348.34375 80.58854Q348.29688 79.760414 347.89062 79.30729Q347.5 78.854164 346.8125 78.854164ZM353.39062 79.041664Q353.14062 79.010414 352.85938 79.010414Q351.78125 79.010414 351.40625 79.916664L351.40625 84.416664L350.32812 84.416664L350.32812 78.072914L351.375 78.072914L351.39062 78.80729Q351.92188 77.96354 352.90625 77.96354Q353.21875 77.96354 353.39062 78.041664L353.39062 79.041664ZM355.79688 76.541664L355.79688 78.072914L356.96875 78.072914L356.96875 78.916664L355.79688 78.916664L355.79688 82.83854Q355.79688 83.229164 355.95312 83.416664Q356.10938 83.604164 356.48438 83.604164Q356.67188 83.604164 357.0 83.541664L357.0 84.416664Q356.57812 84.541664 356.17188 84.541664Q355.45312 84.541664 355.07812 84.104164Q354.70312 83.65104 354.70312 82.83854L354.70312 78.916664L353.54688 78.916664L353.54688 78.072914L354.70312 78.072914L354.70312 76.541664L355.79688 76.541664ZM359.5 84.416664L358.42188 84.416664L358.42188 78.072914L359.5 78.072914L359.5 84.416664ZM358.32812 76.40104Q358.32812 76.135414 358.48438 75.947914Q358.65625 75.760414 358.96875 75.760414Q359.28125 75.760414 359.4375 75.947914Q359.60938 76.135414 359.60938 76.40104Q359.60938 76.65104 359.4375 76.83854Q359.28125 77.010414 358.96875 77.010414Q358.65625 77.010414 358.48438 76.83854Q358.32812 76.65104 358.32812 76.40104ZM361.03125 81.18229Q361.03125 80.260414 361.39062 79.510414Q361.76562 78.760414 362.42188 78.36979Q363.07812 77.96354 363.90625 77.96354Q365.20312 77.96354 366.0 78.854164Q366.8125 79.74479 366.8125 81.24479L366.8125 81.322914Q366.8125 82.24479 366.45312 82.979164Q366.09375 83.71354 365.4375 84.135414Q364.78125 84.541664 363.92188 84.541664Q362.64062 84.541664 361.82812 83.65104Q361.03125 82.74479 361.03125 81.260414L361.03125 81.18229ZM362.125 81.322914Q362.125 82.36979 362.60938 83.010414Q363.10938 83.65104 363.92188 83.65104Q364.75 83.65104 365.23438 83.010414Q365.71875 82.354164 365.71875 81.18229Q365.71875 80.15104 365.21875 79.510414Q364.73438 78.854164 363.90625 78.854164Q363.10938 78.854164 362.60938 79.49479Q362.125 80.11979 362.125 81.322914ZM369.34375 78.072914L369.375 78.86979Q370.10938 77.96354 371.28125 77.96354Q373.29688 77.96354 373.3125 80.229164L373.3125 84.416664L372.21875 84.416664L372.21875 80.21354Q372.21875 79.541664 371.90625 79.21354Q371.60938 78.885414 370.95312 78.885414Q370.42188 78.885414 370.01562 79.166664Q369.625 79.447914 369.40625 79.90104L369.40625 84.416664L368.32812 84.416664L368.32812 78.072914L369.34375 78.072914ZM378.0 80.61979Q376.5625 80.197914 375.89062 79.58854Q375.23438 78.979164 375.23438 78.08854Q375.23438 77.08854 376.03125 76.43229Q376.84375 75.760414 378.14062 75.760414Q379.01562 75.760414 379.70312 76.104164Q380.39062 76.447914 380.76562 77.041664Q381.15625 77.635414 381.15625 78.354164L380.01562 78.354164Q380.01562 77.572914 379.51562 77.135414Q379.03125 76.697914 378.14062 76.697914Q377.3125 76.697914 376.84375 77.072914Q376.375 77.43229 376.375 78.072914Q376.375 78.604164 376.8125 78.96354Q377.26562 79.322914 378.32812 79.61979Q379.39062 79.916664 379.98438 80.27604Q380.59375 80.635414 380.875 81.11979Q381.17188 81.604164 381.17188 82.24479Q381.17188 83.291664 380.35938 83.916664Q379.54688 84.541664 378.20312 84.541664Q377.3125 84.541664 376.54688 84.197914Q375.79688 83.854164 375.375 83.27604Q374.96875 82.68229 374.96875 81.947914L376.09375 81.947914Q376.09375 82.71354 376.67188 83.166664Q377.25 83.61979 378.20312 83.61979Q379.09375 83.61979 379.5625 83.260414Q380.03125 82.885414 380.03125 82.260414Q380.03125 81.635414 379.59375 81.291664Q379.15625 80.947914 378.0 80.61979ZM382.03125 81.18229Q382.03125 80.260414 382.39062 79.510414Q382.76562 78.760414 383.42188 78.36979Q384.07812 77.96354 384.90625 77.96354Q386.20312 77.96354 387.0 78.854164Q387.8125 79.74479 387.8125 81.24479L387.8125 81.322914Q387.8125 82.24479 387.45312 82.979164Q387.09375 83.71354 386.4375 84.135414Q385.78125 84.541664 384.92188 84.541664Q383.64062 84.541664 382.82812 83.65104Q382.03125 82.74479 382.03125 81.260414L382.03125 81.18229ZM383.125 81.322914Q383.125 82.36979 383.60938 83.010414Q384.10938 83.65104 384.92188 83.65104Q385.75 83.65104 386.23438 83.010414Q386.71875 82.354164 386.71875 81.18229Q386.71875 80.15104 386.21875 79.510414Q385.73438 78.854164 384.90625 78.854164Q384.10938 78.854164 383.60938 79.49479Q383.125 80.11979 383.125 81.322914ZM392.39062 79.041664Q392.14062 79.010414 391.85938 79.010414Q390.78125 79.010414 390.40625 79.916664L390.40625 84.416664L389.32812 84.416664L389.32812 78.072914L390.375 78.072914L390.39062 78.80729Q390.92188 77.96354 391.90625 77.96354Q392.21875 77.96354 392.39062 78.041664L392.39062 79.041664ZM394.79688 76.541664L394.79688 78.072914L395.96875 78.072914L395.96875 78.916664L394.79688 78.916664L394.79688 82.83854Q394.79688 83.229164 394.95312 83.416664Q395.10938 83.604164 395.48438 83.604164Q395.67188 83.604164 396.0 83.541664L396.0 84.416664Q395.57812 84.541664 395.17188 84.541664Q394.45312 84.541664 394.07812 84.104164Q393.70312 83.65104 393.70312 82.83854L393.70312 78.916664L392.54688 78.916664L392.54688 78.072914L393.70312 78.072914L393.70312 76.541664L394.79688 76.541664Z" fill-rule="nonzero"/><path stroke="#db4437" stroke-width="4.0" stroke-linecap="butt" d="M412.5 79.916664L424.5 79.916664" fill-rule="nonzero"/><path fill="#757575" d="M434.9375 75.885414L437.73438 82.83854L440.51562 75.885414L441.98438 75.885414L441.98438 84.416664L440.85938 84.416664L440.85938 81.08854L440.96875 77.510414L438.15625 84.416664L437.29688 84.416664L434.5 77.52604L434.60938 81.08854L434.60938 84.416664L433.48438 84.416664L433.48438 75.885414L434.9375 75.885414ZM445.95312 84.541664Q444.65625 84.541664 443.84375 83.697914Q443.04688 82.83854 443.04688 81.416664L443.04688 81.229164Q443.04688 80.27604 443.40625 79.541664Q443.76562 78.791664 444.40625 78.385414Q445.0625 77.96354 445.8125 77.96354Q447.04688 77.96354 447.73438 78.77604Q448.42188 79.58854 448.42188 81.104164L448.42188 81.55729L444.125 81.55729Q444.15625 82.49479 444.67188 83.072914Q445.20312 83.65104 446.01562 83.65104Q446.57812 83.65104 446.96875 83.416664Q447.375 83.18229 447.6875 82.791664L448.34375 83.30729Q447.54688 84.541664 445.95312 84.541664ZM445.8125 78.854164Q445.15625 78.854164 444.70312 79.33854Q444.26562 79.80729 444.17188 80.666664L447.34375 80.666664L447.34375 80.58854Q447.29688 79.760414 446.89062 79.30729Q446.5 78.854164 445.8125 78.854164ZM452.39062 79.041664Q452.14062 79.010414 451.85938 79.010414Q450.78125 79.010414 450.40625 79.916664L450.40625 84.416664L449.32812 84.416664L449.32812 78.072914L450.375 78.072914L450.39062 78.80729Q450.92188 77.96354 451.90625 77.96354Q452.21875 77.96354 452.39062 78.041664L452.39062 79.041664ZM453.0625 81.197914Q453.0625 79.71354 453.75 78.83854Q454.4375 77.96354 455.5625 77.96354Q456.71875 77.96354 457.375 78.77604L457.42188 78.072914L458.42188 78.072914L458.42188 84.260414Q458.42188 85.49479 457.6875 86.197914Q456.95312 86.916664 455.73438 86.916664Q455.04688 86.916664 454.39062 86.61979Q453.73438 86.322914 453.39062 85.822914L453.95312 85.166664Q454.64062 86.02604 455.65625 86.02604Q456.4375 86.02604 456.875 85.572914Q457.32812 85.135414 457.32812 84.322914L457.32812 83.77604Q456.67188 84.541664 455.54688 84.541664Q454.4375 84.541664 453.75 83.65104Q453.0625 82.74479 453.0625 81.197914ZM454.15625 81.322914Q454.15625 82.385414 454.59375 83.010414Q455.03125 83.61979 455.82812 83.61979Q456.84375 83.61979 457.32812 82.68229L457.32812 79.791664Q456.82812 78.885414 455.82812 78.885414Q455.04688 78.885414 454.59375 79.49479Q454.15625 80.104164 454.15625 81.322914ZM462.95312 84.541664Q461.65625 84.541664 460.84375 83.697914Q460.04688 82.83854 460.04688 81.416664L460.04688 81.229164Q460.04688 80.27604 460.40625 79.541664Q460.76562 78.791664 461.40625 78.385414Q462.0625 77.96354 462.8125 77.96354Q464.04688 77.96354 464.73438 78.77604Q465.42188 79.58854 465.42188 81.104164L465.42188 81.55729L461.125 81.55729Q461.15625 82.49479 461.67188 83.072914Q462.20312 83.65104 463.01562 83.65104Q463.57812 83.65104 463.96875 83.416664Q464.375 83.18229 464.6875 82.791664L465.34375 83.30729Q464.54688 84.541664 462.95312 84.541664ZM462.8125 78.854164Q462.15625 78.854164 461.70312 79.33854Q461.26562 79.80729 461.17188 80.666664L464.34375 80.666664L464.34375 80.58854Q464.29688 79.760414 463.89062 79.30729Q463.5 78.854164 462.8125 78.854164ZM469.0 80.61979Q467.5625 80.197914 466.89062 79.58854Q466.23438 78.979164 466.23438 78.08854Q466.23438 77.08854 467.03125 76.43229Q467.84375 75.760414 469.14062 75.760414Q470.01562 75.760414 470.70312 76.104164Q471.39062 76.447914 471.76562 77.041664Q472.15625 77.635414 472.15625 78.354164L471.01562 78.354164Q471.01562 77.572914 470.51562 77.135414Q470.03125 76.697914 469.14062 76.697914Q468.3125 76.697914 467.84375 77.072914Q467.375 77.43229 467.375 78.072914Q467.375 78.604164 467.8125 78.96354Q468.26562 79.322914 469.32812 79.61979Q470.39062 79.916664 470.98438 80.27604Q471.59375 80.635414 471.875 81.11979Q472.17188 81.604164 472.17188 82.24479Q472.17188 83.291664 471.35938 83.916664Q470.54688 84.541664 469.20312 84.541664Q468.3125 84.541664 467.54688 84.197914Q466.79688 83.854164 466.375 83.27604Q465.96875 82.68229 465.96875 81.947914L467.09375 81.947914Q467.09375 82.71354 467.67188 83.166664Q468.25 83.61979 469.20312 83.61979Q470.09375 83.61979 470.5625 83.260414Q471.03125 82.885414 471.03125 82.260414Q471.03125 81.635414 470.59375 81.291664Q470.15625 80.947914 469.0 80.61979ZM473.03125 81.18229Q473.03125 80.260414 473.39062 79.510414Q473.76562 78.760414 474.42188 78.36979Q475.07812 77.96354 475.90625 77.96354Q477.20312 77.96354 478.0 78.854164Q478.8125 79.74479 478.8125 81.24479L478.8125 81.322914Q478.8125 82.24479 478.45312 82.979164Q478.09375 83.71354 477.4375 84.135414Q476.78125 84.541664 475.92188 84.541664Q474.64062 84.541664 473.82812 83.65104Q473.03125 82.74479 473.03125 81.260414L473.03125 81.18229ZM474.125 81.322914Q474.125 82.36979 474.60938 83.010414Q475.10938 83.65104 475.92188 83.65104Q476.75 83.65104 477.23438 83.010414Q477.71875 82.354164 477.71875 81.18229Q477.71875 80.15104 477.21875 79.510414Q476.73438 78.854164 475.90625 78.854164Q475.10938 78.854164 474.60938 79.49479Q474.125 80.11979 474.125 81.322914ZM483.39062 79.041664Q483.14062 79.010414 482.85938 79.010414Q481.78125 79.010414 481.40625 79.916664L481.40625 84.416664L480.32812 84.416664L480.32812 78.072914L481.375 78.072914L481.39062 78.80729Q481.92188 77.96354 482.90625 77.96354Q483.21875 77.96354 483.39062 78.041664L483.39062 79.041664ZM485.79688 76.541664L485.79688 78.072914L486.96875 78.072914L486.96875 78.916664L485.79688 78.916664L485.79688 82.83854Q485.79688 83.229164 485.95312 83.416664Q486.10938 83.604164 486.48438 83.604164Q486.67188 83.604164 487.0 83.541664L487.0 84.416664Q486.57812 84.541664 486.17188 84.541664Q485.45312 84.541664 485.07812 84.104164Q484.70312 83.65104 484.70312 82.83854L484.70312 78.916664L483.54688 78.916664L483.54688 78.072914L484.70312 78.072914L484.70312 76.541664L485.79688 76.541664Z" fill-rule="nonzero"/><path stroke="#f4b400" stroke-width="4.0" stroke-linecap="butt" d="M503.5 79.916664L515.5 79.916664" fill-rule="nonzero"/><path fill="#757575" d="M525.9375 75.885414L528.7344 82.83854L531.5156 75.885414L532.9844 75.885414L532.9844 84.416664L531.8594 84.416664L531.8594 81.08854L531.96875 77.510414L529.15625 84.416664L528.2969 84.416664L525.5 77.52604L525.6094 81.08854L525.6094 84.416664L524.4844 84.416664L524.4844 75.885414L525.9375 75.885414ZM536.9531 84.541664Q535.65625 84.541664 534.84375 83.697914Q534.0469 82.83854 534.0469 81.416664L534.0469 81.229164Q534.0469 80.27604 534.40625 79.541664Q534.7656 78.791664 535.40625 78.385414Q536.0625 77.96354 536.8125 77.96354Q538.0469 77.96354 538.7344 78.77604Q539.4219 79.58854 539.4219 81.104164L539.4219 81.55729L535.125 81.55729Q535.15625 82.49479 535.6719 83.072914Q536.2031 83.65104 537.0156 83.65104Q537.5781 83.65104 537.96875 83.416664Q538.375 83.18229 538.6875 82.791664L539.34375 83.30729Q538.5469 84.541664 536.9531 84.541664ZM536.8125 78.854164Q536.15625 78.854164 535.7031 79.33854Q535.2656 79.80729 535.1719 80.666664L538.34375 80.666664L538.34375 80.58854Q538.2969 79.760414 537.8906 79.30729Q537.5 78.854164 536.8125 78.854164ZM543.3906 79.041664Q543.1406 79.010414 542.8594 79.010414Q541.78125 79.010414 541.40625 79.916664L541.40625 84.416664L540.3281 84.416664L540.3281 78.072914L541.375 78.072914L541.3906 78.80729Q541.9219 77.96354 542.90625 77.96354Q543.21875 77.96354 543.3906 78.041664L543.3906 79.041664ZM544.0625 81.197914Q544.0625 79.71354 544.75 78.83854Q545.4375 77.96354 546.5625 77.96354Q547.71875 77.96354 548.375 78.77604L548.4219 78.072914L549.4219 78.072914L549.4219 84.260414Q549.4219 85.49479 548.6875 86.197914Q547.9531 86.916664 546.7344 86.916664Q546.0469 86.916664 545.3906 86.61979Q544.7344 86.322914 544.3906 85.822914L544.9531 85.166664Q545.6406 86.02604 546.65625 86.02604Q547.4375 86.02604 547.875 85.572914Q548.3281 85.135414 548.3281 84.322914L548.3281 83.77604Q547.6719 84.541664 546.5469 84.541664Q545.4375 84.541664 544.75 83.65104Q544.0625 82.74479 544.0625 81.197914ZM545.15625 81.322914Q545.15625 82.385414 545.59375 83.010414Q546.03125 83.61979 546.8281 83.61979Q547.84375 83.61979 548.3281 82.68229L548.3281 79.791664Q547.8281 78.885414 546.8281 78.885414Q546.0469 78.885414 545.59375 79.49479Q545.15625 80.104164 545.15625 81.322914ZM553.9531 84.541664Q552.65625 84.541664 551.84375 83.697914Q551.0469 82.83854 551.0469 81.416664L551.0469 81.229164Q551.0469 80.27604 551.40625 79.541664Q551.7656 78.791664 552.40625 78.385414Q553.0625 77.96354 553.8125 77.96354Q555.0469 77.96354 555.7344 78.77604Q556.4219 79.58854 556.4219 81.104164L556.4219 81.55729L552.125 81.55729Q552.15625 82.49479 552.6719 83.072914Q553.2031 83.65104 554.0156 83.65104Q554.5781 83.65104 554.96875 83.416664Q555.375 83.18229 555.6875 82.791664L556.34375 83.30729Q555.5469 84.541664 553.9531 84.541664ZM553.8125 78.854164Q553.15625 78.854164 552.7031 79.33854Q552.2656 79.80729 552.1719 80.666664L555.34375 80.666664L555.34375 80.58854Q555.2969 79.760414 554.8906 79.30729Q554.5 78.854164 553.8125 78.854164ZM560.0 80.61979Q558.5625 80.197914 557.8906 79.58854Q557.2344 78.979164 557.2344 78.08854Q557.2344 77.08854 558.03125 76.43229Q558.84375 75.760414 560.1406 75.760414Q561.0156 75.760414 561.7031 76.104164Q562.3906 76.447914 562.7656 77.041664Q563.15625 77.635414 563.15625 78.354164L562.0156 78.354164Q562.0156 77.572914 561.5156 77.135414Q561.03125 76.697914 560.1406 76.697914Q559.3125 76.697914 558.84375 77.072914Q558.375 77.43229 558.375 78.072914Q558.375 78.604164 558.8125 78.96354Q559.2656 79.322914 560.3281 79.61979Q561.3906 79.916664 561.9844 80.27604Q562.59375 80.635414 562.875 81.11979Q563.1719 81.604164 563.1719 82.24479Q563.1719 83.291664 562.3594 83.916664Q561.5469 84.541664 560.2031 84.541664Q559.3125 84.541664 558.5469 84.197914Q557.7969 83.854164 557.375 83.27604Q556.96875 82.68229 556.96875 81.947914L558.09375 81.947914Q558.09375 82.71354 558.6719 83.166664Q559.25 83.61979 560.2031 83.61979Q561.09375 83.61979 561.5625 83.260414Q562.03125 82.885414 562.03125 82.260414Q562.03125 81.635414 561.59375 81.291664Q561.15625 80.947914 560.0 80.61979ZM564.03125 81.18229Q564.03125 80.260414 564.3906 79.510414Q564.7656 78.760414 565.4219 78.36979Q566.0781 77.96354 566.90625 77.96354Q568.2031 77.96354 569.0 78.854164Q569.8125 79.74479 569.8125 81.24479L569.8125 81.322914Q569.8125 82.24479 569.4531 82.979164Q569.09375 83.71354 568.4375 84.135414Q567.78125 84.541664 566.9219 84.541664Q565.6406 84.541664 564.8281 83.65104Q564.03125 82.74479 564.03125 81.260414L564.03125 81.18229ZM565.125 81.322914Q565.125 82.36979 565.6094 83.010414Q566.1094 83.65104 566.9219 83.65104Q567.75 83.65104 568.2344 83.010414Q568.71875 82.354164 568.71875 81.18229Q568.71875 80.15104 568.21875 79.510414Q567.7344 78.854164 566.90625 78.854164Q566.1094 78.854164 565.6094 79.49479Q565.125 80.11979 565.125 81.322914ZM574.3906 79.041664Q574.1406 79.010414 573.8594 79.010414Q572.78125 79.010414 572.40625 79.916664L572.40625 84.416664L571.3281 84.416664L571.3281 78.072914L572.375 78.072914L572.3906 78.80729Q572.9219 77.96354 573.90625 77.96354Q574.21875 77.96354 574.3906 78.041664L574.3906 79.041664ZM576.7969 76.541664L576.7969 78.072914L577.96875 78.072914L577.96875 78.916664L576.7969 78.916664L576.7969 82.83854Q576.7969 83.229164 576.9531 83.416664Q577.1094 83.604164 577.4844 83.604164Q577.6719 83.604164 578.0 83.541664L578.0 84.416664Q577.5781 84.541664 577.1719 84.541664Q576.4531 84.541664 576.0781 84.104164Q575.7031 83.65104 575.7031 82.83854L575.7031 78.916664L574.5469 78.916664L574.5469 78.072914L575.7031 78.072914L575.7031 76.541664L576.7969 76.541664ZM584.3125 80.479164L580.6094 80.479164L580.6094 83.49479L584.90625 83.49479L584.90625 84.416664L579.4844 84.416664L579.4844 75.885414L584.8594 75.885414L584.8594 76.80729L580.6094 76.80729L580.6094 79.55729L584.3125 79.55729L584.3125 80.479164ZM587.34375 78.072914L587.375 78.86979Q588.1094 77.96354 589.28125 77.96354Q591.2969 77.96354 591.3125 80.229164L591.3125 84.416664L590.21875 84.416664L590.21875 80.21354Q590.21875 79.541664 589.90625 79.21354Q589.6094 78.885414 588.9531 78.885414Q588.4219 78.885414 588.0156 79.166664Q587.625 79.447914 587.40625 79.90104L587.40625 84.416664L586.3281 84.416664L586.3281 78.072914L587.34375 78.072914ZM594.40625 78.83854Q595.125 77.96354 596.28125 77.96354Q598.2969 77.96354 598.3125 80.229164L598.3125 84.416664L597.21875 84.416664L597.21875 80.21354Q597.21875 79.541664 596.90625 79.21354Q596.6094 78.885414 595.9531 78.885414Q595.4219 78.885414 595.0156 79.166664Q594.625 79.447914 594.40625 79.90104L594.40625 84.416664L593.3281 84.416664L593.3281 75.416664L594.40625 75.416664L594.40625 78.83854ZM604.2344 84.416664Q604.1406 84.229164 604.0781 83.74479Q603.3281 84.541664 602.28125 84.541664Q601.34375 84.541664 600.7344 84.010414Q600.1406 83.479164 600.1406 82.65104Q600.1406 81.666664 600.8906 81.11979Q601.6406 80.572914 603.0156 80.572914L604.0625 80.572914L604.0625 80.072914Q604.0625 79.510414 603.71875 79.18229Q603.3906 78.83854 602.71875 78.83854Q602.1406 78.83854 601.75 79.135414Q601.3594 79.416664 601.3594 79.83854L600.2656 79.83854Q600.2656 79.354164 600.59375 78.916664Q600.9375 78.479164 601.5156 78.229164Q602.09375 77.96354 602.78125 77.96354Q603.8906 77.96354 604.5 78.510414Q605.125 79.05729 605.15625 80.010414L605.15625 82.93229Q605.15625 83.80729 605.375 84.322914L605.375 84.416664L604.2344 84.416664ZM602.4375 83.58854Q602.9531 83.58854 603.40625 83.322914Q603.8594 83.05729 604.0625 82.635414L604.0625 81.33854L603.21875 81.33854Q601.21875 81.33854 601.21875 82.510414Q601.21875 83.010414 601.5625 83.30729Q601.90625 83.58854 602.4375 83.58854ZM608.34375 78.072914L608.375 78.86979Q609.1094 77.96354 610.28125 77.96354Q612.2969 77.96354 612.3125 80.229164L612.3125 84.416664L611.21875 84.416664L611.21875 80.21354Q611.21875 79.541664 610.90625 79.21354Q610.6094 78.885414 609.9531 78.885414Q609.4219 78.885414 609.0156 79.166664Q608.625 79.447914 608.40625 79.90104L608.40625 84.416664L607.3281 84.416664L607.3281 78.072914L608.34375 78.072914ZM616.8594 83.65104Q617.4375 83.65104 617.875 83.30729Q618.3125 82.947914 618.3594 82.416664L619.3906 82.416664Q619.3594 82.96354 619.0 83.46354Q618.65625 83.947914 618.0781 84.24479Q617.5156 84.541664 616.8594 84.541664Q615.5625 84.541664 614.7969 83.68229Q614.0469 82.80729 614.0469 81.30729L614.0469 81.11979Q614.0469 80.197914 614.375 79.479164Q614.71875 78.760414 615.34375 78.36979Q615.9844 77.96354 616.8594 77.96354Q617.9219 77.96354 618.625 78.604164Q619.34375 79.229164 619.3906 80.260414L618.3594 80.260414Q618.3125 79.635414 617.8906 79.24479Q617.46875 78.854164 616.8594 78.854164Q616.03125 78.854164 615.5781 79.447914Q615.125 80.041664 615.125 81.166664L615.125 81.36979Q615.125 82.46354 615.5781 83.05729Q616.03125 83.65104 616.8594 83.65104ZM622.9531 84.541664Q621.65625 84.541664 620.84375 83.697914Q620.0469 82.83854 620.0469 81.416664L620.0469 81.229164Q620.0469 80.27604 620.40625 79.541664Q620.7656 78.791664 621.40625 78.385414Q622.0625 77.96354 622.8125 77.96354Q624.0469 77.96354 624.7344 78.77604Q625.4219 79.58854 625.4219 81.104164L625.4219 81.55729L621.125 81.55729Q621.15625 82.49479 621.6719 83.072914Q622.2031 83.65104 623.0156 83.65104Q623.5781 83.65104 623.96875 83.416664Q624.375 83.18229 624.6875 82.791664L625.34375 83.30729Q624.5469 84.541664 622.9531 84.541664ZM622.8125 78.854164Q622.15625 78.854164 621.7031 79.33854Q621.2656 79.80729 621.1719 80.666664L624.34375 80.666664L624.34375 80.58854Q624.2969 79.760414 623.8906 79.30729Q623.5 78.854164 622.8125 78.854164ZM626.0625 81.197914Q626.0625 79.729164 626.75 78.854164Q627.4375 77.96354 628.5625 77.96354Q629.6719 77.96354 630.3281 78.71354L630.3281 75.416664L631.40625 75.416664L631.40625 84.416664L630.40625 84.416664L630.3594 83.729164Q629.7031 84.541664 628.5469 84.541664Q627.4531 84.541664 626.75 83.635414Q626.0625 82.729164 626.0625 81.27604L626.0625 81.197914ZM627.1406 81.322914Q627.1406 82.40104 627.5781 83.010414Q628.03125 83.61979 628.8125 83.61979Q629.84375 83.61979 630.3281 82.68229L630.3281 79.77604Q629.84375 78.885414 628.8281 78.885414Q628.03125 78.885414 627.5781 79.49479Q627.1406 80.104164 627.1406 81.322914Z" fill-rule="nonzero"/><path fill="#757575" d="M32.70625 48.05L30.83125 48.05L30.83125 33.83125L32.70625 33.83125L32.70625 48.05ZM37.128124 37.4875L37.190624 38.815624Q38.39375 37.284374 40.346874 37.284374Q43.70625 37.284374 43.721874 41.065624L43.721874 48.05L41.925 48.05L41.925 41.05Q41.909374 39.909374 41.39375 39.3625Q40.89375 38.815624 39.8 38.815624Q38.925 38.815624 38.253124 39.284374Q37.596874 39.753124 37.221874 40.51875L37.221874 48.05L35.425 48.05L35.425 37.4875L37.128124 37.4875ZM52.565624 45.253124Q52.565624 44.51875 52.01875 44.1125Q51.471874 43.70625 50.096874 43.409374Q48.721874 43.1125 47.909374 42.70625Q47.1125 42.3 46.721874 41.7375Q46.346874 41.159374 46.346874 40.378124Q46.346874 39.08125 47.440624 38.190624Q48.534374 37.284374 50.253124 37.284374Q52.05 37.284374 53.159374 38.221874Q54.284374 39.14375 54.284374 40.58125L52.45625 40.58125Q52.45625 39.846874 51.83125 39.315624Q51.20625 38.76875 50.253124 38.76875Q49.253124 38.76875 48.690624 39.20625Q48.14375 39.628124 48.14375 40.33125Q48.14375 40.971874 48.659374 41.315624Q49.175 41.64375 50.534374 41.95625Q51.89375 42.253124 52.721874 42.675Q53.565624 43.08125 53.971874 43.675Q54.378124 44.26875 54.378124 45.1125Q54.378124 46.534374 53.2375 47.39375Q52.1125 48.253124 50.3 48.253124Q49.034374 48.253124 48.05 47.8Q47.08125 47.346874 46.51875 46.55Q45.971874 45.7375 45.971874 44.8L47.784374 44.8Q47.83125 45.70625 48.503124 46.2375Q49.190624 46.76875 50.3 46.76875Q51.33125 46.76875 51.940624 46.3625Q52.565624 45.940624 52.565624 45.253124ZM60.8 48.253124Q58.659374 48.253124 57.3 46.846874Q55.95625 45.425 55.95625 43.065624L55.95625 42.721874Q55.95625 41.159374 56.55 39.925Q57.159374 38.690624 58.2375 37.9875Q59.315624 37.284374 60.58125 37.284374Q62.64375 37.284374 63.784374 38.64375Q64.925 40.003124 64.925 42.534374L64.925 43.284374L57.76875 43.284374Q57.8 44.846874 58.675 45.815624Q59.55 46.76875 60.89375 46.76875Q61.8625 46.76875 62.51875 46.378124Q63.190624 45.9875 63.690624 45.346874L64.78438 46.20625Q63.45625 48.253124 60.8 48.253124ZM60.58125 38.76875Q59.4875 38.76875 58.7375 39.565624Q58.003124 40.3625 57.83125 41.8L63.1125 41.8L63.1125 41.659374Q63.034374 40.284374 62.3625 39.534374Q61.70625 38.76875 60.58125 38.76875ZM72.51875 39.096874Q72.1125 39.034374 71.64375 39.034374Q69.8625 39.034374 69.22188 40.55L69.22188 48.05L67.425 48.05L67.425 37.4875L69.175 37.4875L69.20625 38.70625Q70.09688 37.284374 71.72188 37.284374Q72.25313 37.284374 72.51875 37.425L72.51875 39.096874ZM76.8625 34.925L76.8625 37.4875L78.84688 37.4875L78.84688 38.878124L76.8625 38.878124L76.8625 45.425Q76.8625 46.065624 77.12813 46.39375Q77.39375 46.70625 78.03438 46.70625Q78.34688 46.70625 78.89375 46.58125L78.89375 48.05Q78.175 48.253124 77.50313 48.253124Q76.3 48.253124 75.675 47.51875Q75.06563 46.784374 75.06563 45.425L75.06563 38.878124L73.14375 38.878124L73.14375 37.4875L75.06563 37.4875L75.06563 34.925L76.8625 34.925ZM83.37813 48.05L81.58125 48.05L81.58125 37.4875L83.37813 37.4875L83.37813 48.05ZM81.425 34.675Q81.425 34.2375 81.69063 33.940624Q81.97188 33.628124 82.4875 33.628124Q83.01875 33.628124 83.28438 33.940624Q83.56563 34.2375 83.56563 34.675Q83.56563 35.1125 83.28438 35.409374Q83.01875 35.70625 82.4875 35.70625Q81.97188 35.70625 81.69063 35.409374Q81.425 35.1125 81.425 34.675ZM85.94063 42.675Q85.94063 41.1125 86.55 39.878124Q87.15938 38.628124 88.2375 37.95625Q89.33125 37.284374 90.7375 37.284374Q92.89375 37.284374 94.22188 38.784374Q95.56563 40.26875 95.56563 42.753124L95.56563 42.878124Q95.56563 44.425 94.97188 45.659374Q94.37813 46.878124 93.26875 47.565624Q92.175 48.253124 90.75313 48.253124Q88.6125 48.253124 87.26875 46.753124Q85.94063 45.253124 85.94063 42.8L85.94063 42.675ZM87.75313 42.878124Q87.75313 44.64375 88.56563 45.70625Q89.39375 46.76875 90.75313 46.76875Q92.12813 46.76875 92.94063 45.690624Q93.75313 44.6125 93.75313 42.675Q93.75313 40.925 92.925 39.846874Q92.09688 38.76875 90.7375 38.76875Q89.39375 38.76875 88.56563 39.83125Q87.75313 40.89375 87.75313 42.878124ZM99.12813 37.4875L99.19063 38.815624Q100.39375 37.284374 102.34688 37.284374Q105.70625 37.284374 105.72188 41.065624L105.72188 48.05L103.925 48.05L103.925 41.05Q103.90938 39.909374 103.39375 39.3625Q102.89375 38.815624 101.8 38.815624Q100.925 38.815624 100.25313 39.284374Q99.59688 39.753124 99.22188 40.51875L99.22188 48.05L97.425 48.05L97.425 37.4875L99.12813 37.4875ZM108.3625 50.878124L107.33125 50.175Q108.25313 48.89375 108.28438 47.534374L108.28438 45.909374L110.06563 45.909374L110.06563 47.33125Q110.06563 48.315624 109.58125 49.3Q109.09688 50.284374 108.3625 50.878124ZM120.12813 33.83125L124.76875 45.425L129.425 33.83125L131.84688 33.83125L131.84688 48.05L129.97188 48.05L129.97188 42.51875L130.15938 36.534374L125.4875 48.05L124.05 48.05L119.39375 36.565624L119.58125 42.51875L119.58125 48.05L117.70625 48.05L117.70625 33.83125L120.12813 33.83125ZM138.8 48.253124Q136.65938 48.253124 135.3 46.846874Q133.95625 45.425 133.95625 43.065624L133.95625 42.721874Q133.95625 41.159374 134.55 39.925Q135.15938 38.690624 136.2375 37.9875Q137.31563 37.284374 138.58125 37.284374Q140.64375 37.284374 141.78438 38.64375Q142.925 40.003124 142.925 42.534374L142.925 43.284374L135.76875 43.284374Q135.8 44.846874 136.675 45.815624Q137.55 46.76875 138.89375 46.76875Q139.8625 46.76875 140.51875 46.378124Q141.19063 45.9875 141.69063 45.346874L142.78438 46.20625Q141.45625 48.253124 138.8 48.253124ZM138.58125 38.76875Q137.4875 38.76875 136.7375 39.565624Q136.00313 40.3625 135.83125 41.8L141.1125 41.8L141.1125 41.659374Q141.03438 40.284374 140.3625 39.534374Q139.70625 38.76875 138.58125 38.76875ZM150.51875 39.096874Q150.1125 39.034374 149.64375 39.034374Q147.8625 39.034374 147.22188 40.55L147.22188 48.05L145.425 48.05L145.425 37.4875L147.175 37.4875L147.20625 38.70625Q148.09688 37.284374 149.72188 37.284374Q150.25313 37.284374 150.51875 37.425L150.51875 39.096874ZM151.9875 42.675Q151.9875 40.20625 153.12813 38.753124Q154.26875 37.284374 156.15938 37.284374Q158.09688 37.284374 159.175 38.659374L159.26875 37.4875L160.90938 37.4875L160.90938 47.8Q160.90938 49.846874 159.69063 51.01875Q158.4875 52.20625 156.425 52.20625Q155.28438 52.20625 154.19063 51.721874Q153.09688 51.2375 152.51875 50.378124L153.45625 49.3Q154.62813 50.7375 156.3 50.7375Q157.62813 50.7375 158.3625 49.9875Q159.09688 49.253124 159.09688 47.909374L159.09688 46.9875Q158.01875 48.253124 156.14375 48.253124Q154.28438 48.253124 153.12813 46.753124Q151.9875 45.253124 151.9875 42.675ZM153.8 42.878124Q153.8 44.675 154.53438 45.690624Q155.26875 46.70625 156.58125 46.70625Q158.3 46.70625 159.09688 45.159374L159.09688 40.33125Q158.26875 38.815624 156.6125 38.815624Q155.28438 38.815624 154.53438 39.846874Q153.8 40.878124 153.8 42.878124ZM167.8 48.253124Q165.65938 48.253124 164.3 46.846874Q162.95625 45.425 162.95625 43.065624L162.95625 42.721874Q162.95625 41.159374 163.55 39.925Q164.15938 38.690624 165.2375 37.9875Q166.31563 37.284374 167.58125 37.284374Q169.64375 37.284374 170.78438 38.64375Q171.925 40.003124 171.925 42.534374L171.925 43.284374L164.76875 43.284374Q164.8 44.846874 165.675 45.815624Q166.55 46.76875 167.89375 46.76875Q168.8625 46.76875 169.51875 46.378124Q170.19063 45.9875 170.69063 45.346874L171.78438 46.20625Q170.45625 48.253124 167.8 48.253124ZM167.58125 38.76875Q166.4875 38.76875 165.7375 39.565624Q165.00313 40.3625 164.83125 41.8L170.1125 41.8L170.1125 41.659374Q170.03438 40.284374 169.3625 39.534374Q168.70625 38.76875 167.58125 38.76875ZM178.89375 41.70625Q176.47188 41.01875 175.37813 40.01875Q174.28438 39.003124 174.28438 37.51875Q174.28438 35.83125 175.62813 34.7375Q176.97188 33.628124 179.1125 33.628124Q180.58125 33.628124 181.72188 34.20625Q182.87813 34.76875 183.50313 35.76875Q184.12813 36.753124 184.12813 37.940624L182.25313 37.940624Q182.25313 36.659374 181.425 35.925Q180.6125 35.175 179.1125 35.175Q177.72188 35.175 176.94063 35.784374Q176.175 36.39375 176.175 37.4875Q176.175 38.346874 176.90938 38.95625Q177.64375 39.55 179.40938 40.05Q181.19063 40.55 182.19063 41.159374Q183.19063 41.753124 183.675 42.55Q184.15938 43.346874 184.15938 44.440624Q184.15938 46.159374 182.81563 47.20625Q181.47188 48.253124 179.20625 48.253124Q177.75313 48.253124 176.47188 47.690624Q175.20625 47.128124 174.51875 46.159374Q173.83125 45.175 173.83125 43.925L175.72188 43.925Q175.72188 45.221874 176.675 45.971874Q177.62813 46.70625 179.20625 46.70625Q180.69063 46.70625 181.4875 46.1125Q182.28438 45.503124 182.28438 44.45625Q182.28438 43.409374 181.55 42.846874Q180.81563 42.26875 178.89375 41.70625ZM185.94063 42.675Q185.94063 41.1125 186.55 39.878124Q187.15938 38.628124 188.2375 37.95625Q189.33125 37.284374 190.7375 37.284374Q192.89375 37.284374 194.22188 38.784374Q195.56563 40.26875 195.56563 42.753124L195.56563 42.878124Q195.56563 44.425 194.97188 45.659374Q194.37813 46.878124 193.26875 47.565624Q192.175 48.253124 190.75313 48.253124Q188.6125 48.253124 187.26875 46.753124Q185.94063 45.253124 185.94063 42.8L185.94063 42.675ZM187.75313 42.878124Q187.75313 44.64375 188.56563 45.70625Q189.39375 46.76875 190.75313 46.76875Q192.12813 46.76875 192.94063 45.690624Q193.75313 44.6125 193.75313 42.675Q193.75313 40.925 192.925 39.846874Q192.09688 38.76875 190.7375 38.76875Q189.39375 38.76875 188.56563 39.83125Q187.75313 40.89375 187.75313 42.878124ZM202.51875 39.096874Q202.1125 39.034374 201.64375 39.034374Q199.8625 39.034374 199.22188 40.55L199.22188 48.05L197.425 48.05L197.425 37.4875L199.175 37.4875L199.20625 38.70625Q200.09688 37.284374 201.72188 37.284374Q202.25313 37.284374 202.51875 37.425L202.51875 39.096874ZM206.8625 34.925L206.8625 37.4875L208.84688 37.4875L208.84688 38.878124L206.8625 38.878124L206.8625 45.425Q206.8625 46.065624 207.12813 46.39375Q207.39375 46.70625 208.03438 46.70625Q208.34688 46.70625 208.89375 46.58125L208.89375 48.05Q208.175 48.253124 207.50313 48.253124Q206.3 48.253124 205.675 47.51875Q205.06563 46.784374 205.06563 45.425L205.06563 38.878124L203.14375 38.878124L203.14375 37.4875L205.06563 37.4875L205.06563 34.925L206.8625 34.925ZM222.94063 48.05Q222.78438 47.7375 222.69063 46.940624Q221.425 48.253124 219.675 48.253124Q218.1125 48.253124 217.1125 47.3625Q216.1125 46.471874 216.1125 45.1125Q216.1125 43.471874 217.3625 42.565624Q218.62813 41.64375 220.89375 41.64375L222.65938 41.64375L222.65938 40.815624Q222.65938 39.8625 222.08125 39.3Q221.51875 38.7375 220.425 38.7375Q219.45625 38.7375 218.8 39.2375Q218.14375 39.721874 218.14375 40.409374L216.33125 40.409374Q216.33125 39.628124 216.89375 38.89375Q217.45625 38.14375 218.40938 37.721874Q219.37813 37.284374 220.53438 37.284374Q222.3625 37.284374 223.39375 38.20625Q224.425 39.1125 224.47188 40.721874L224.47188 45.58125Q224.47188 47.034374 224.83125 47.89375L224.83125 48.05L222.94063 48.05ZM219.94063 46.675Q220.8 46.675 221.55 46.2375Q222.31563 45.8 222.65938 45.096874L222.65938 42.925L221.2375 42.925Q217.925 42.925 217.925 44.8625Q217.925 45.721874 218.4875 46.20625Q219.05 46.675 219.94063 46.675ZM229.12813 37.4875L229.19063 38.815624Q230.39375 37.284374 232.34688 37.284374Q235.70625 37.284374 235.72188 41.065624L235.72188 48.05L233.925 48.05L233.925 41.05Q233.90938 39.909374 233.39375 39.3625Q232.89375 38.815624 231.8 38.815624Q230.925 38.815624 230.25313 39.284374Q229.59688 39.753124 229.22188 40.51875L229.22188 48.05L227.425 48.05L227.425 37.4875L229.12813 37.4875ZM237.97188 42.675Q237.97188 40.253124 239.12813 38.76875Q240.28438 37.284374 242.14375 37.284374Q244.00313 37.284374 245.08125 38.55L245.08125 33.05L246.89375 33.05L246.89375 48.05L245.2375 48.05L245.14375 46.909374Q244.06563 48.253124 242.12813 48.253124Q240.3 48.253124 239.12813 46.753124Q237.97188 45.2375 237.97188 42.815624L237.97188 42.675ZM239.78438 42.878124Q239.78438 44.675 240.51875 45.690624Q241.26875 46.70625 242.58125 46.70625Q244.3 46.70625 245.08125 45.175L245.08125 40.315624Q244.28438 38.815624 242.59688 38.815624Q241.26875 38.815624 240.51875 39.846874Q239.78438 40.878124 239.78438 42.878124ZM257.1281 33.83125L261.76874 45.425L266.425 33.83125L268.84686 33.83125L268.84686 48.05L266.97186 48.05L266.97186 42.51875L267.15936 36.534374L262.4875 48.05L261.05 48.05L256.39374 36.565624L256.58124 42.51875L256.58124 48.05L254.70625 48.05L254.70625 33.83125L257.1281 33.83125ZM275.8 48.253124Q273.65936 48.253124 272.3 46.846874Q270.95624 45.425 270.95624 43.065624L270.95624 42.721874Q270.95624 41.159374 271.55 39.925Q272.15936 38.690624 273.2375 37.9875Q274.3156 37.284374 275.58124 37.284374Q277.64374 37.284374 278.78436 38.64375Q279.925 40.003124 279.925 42.534374L279.925 43.284374L272.76874 43.284374Q272.8 44.846874 273.675 45.815624Q274.55 46.76875 275.89374 46.76875Q276.8625 46.76875 277.51874 46.378124Q278.1906 45.9875 278.6906 45.346874L279.78436 46.20625Q278.45624 48.253124 275.8 48.253124ZM275.58124 38.76875Q274.4875 38.76875 273.7375 39.565624Q273.0031 40.3625 272.83124 41.8L278.1125 41.8L278.1125 41.659374Q278.03436 40.284374 277.3625 39.534374Q276.70624 38.76875 275.58124 38.76875ZM287.51874 39.096874Q287.1125 39.034374 286.64374 39.034374Q284.8625 39.034374 284.22186 40.55L284.22186 48.05L282.425 48.05L282.425 37.4875L284.175 37.4875L284.20624 38.70625Q285.09686 37.284374 286.72186 37.284374Q287.2531 37.284374 287.51874 37.425L287.51874 39.096874ZM288.9875 42.675Q288.9875 40.20625 290.1281 38.753124Q291.26874 37.284374 293.15936 37.284374Q295.09686 37.284374 296.175 38.659374L296.26874 37.4875L297.90936 37.4875L297.90936 47.8Q297.90936 49.846874 296.6906 51.01875Q295.4875 52.20625 293.425 52.20625Q292.28436 52.20625 291.1906 51.721874Q290.09686 51.2375 289.51874 50.378124L290.45624 49.3Q291.6281 50.7375 293.3 50.7375Q294.6281 50.7375 295.3625 49.9875Q296.09686 49.253124 296.09686 47.909374L296.09686 46.9875Q295.01874 48.253124 293.14374 48.253124Q291.28436 48.253124 290.1281 46.753124Q288.9875 45.253124 288.9875 42.675ZM290.8 42.878124Q290.8 44.675 291.53436 45.690624Q292.26874 46.70625 293.58124 46.70625Q295.3 46.70625 296.09686 45.159374L296.09686 40.33125Q295.26874 38.815624 293.6125 38.815624Q292.28436 38.815624 291.53436 39.846874Q290.8 40.878124 290.8 42.878124ZM304.8 48.253124Q302.65936 48.253124 301.3 46.846874Q299.95624 45.425 299.95624 43.065624L299.95624 42.721874Q299.95624 41.159374 300.55 39.925Q301.15936 38.690624 302.2375 37.9875Q303.3156 37.284374 304.58124 37.284374Q306.64374 37.284374 307.78436 38.64375Q308.925 40.003124 308.925 42.534374L308.925 43.284374L301.76874 43.284374Q301.8 44.846874 302.675 45.815624Q303.55 46.76875 304.89374 46.76875Q305.8625 46.76875 306.51874 46.378124Q307.1906 45.9875 307.6906 45.346874L308.78436 46.20625Q307.45624 48.253124 304.8 48.253124ZM304.58124 38.76875Q303.4875 38.76875 302.7375 39.565624Q302.0031 40.3625 301.83124 41.8L307.1125 41.8L307.1125 41.659374Q307.03436 40.284374 306.3625 39.534374Q305.70624 38.76875 304.58124 38.76875ZM315.89374 41.70625Q313.47186 41.01875 312.3781 40.01875Q311.28436 39.003124 311.28436 37.51875Q311.28436 35.83125 312.6281 34.7375Q313.97186 33.628124 316.1125 33.628124Q317.58124 33.628124 318.72186 34.20625Q319.8781 34.76875 320.5031 35.76875Q321.1281 36.753124 321.1281 37.940624L319.2531 37.940624Q319.2531 36.659374 318.425 35.925Q317.6125 35.175 316.1125 35.175Q314.72186 35.175 313.9406 35.784374Q313.175 36.39375 313.175 37.4875Q313.175 38.346874 313.90936 38.95625Q314.64374 39.55 316.40936 40.05Q318.1906 40.55 319.1906 41.159374Q320.1906 41.753124 320.675 42.55Q321.15936 43.346874 321.15936 44.440624Q321.15936 46.159374 319.8156 47.20625Q318.47186 48.253124 316.20624 48.253124Q314.7531 48.253124 313.47186 47.690624Q312.20624 47.128124 311.51874 46.159374Q310.83124 45.175 310.83124 43.925L312.72186 43.925Q312.72186 45.221874 313.675 45.971874Q314.6281 46.70625 316.20624 46.70625Q317.6906 46.70625 318.4875 46.1125Q319.28436 45.503124 319.28436 44.45625Q319.28436 43.409374 318.55 42.846874Q317.8156 42.26875 315.89374 41.70625ZM322.9406 42.675Q322.9406 41.1125 323.55 39.878124Q324.15936 38.628124 325.2375 37.95625Q326.33124 37.284374 327.7375 37.284374Q329.89374 37.284374 331.22186 38.784374Q332.5656 40.26875 332.5656 42.753124L332.5656 42.878124Q332.5656 44.425 331.97186 45.659374Q331.3781 46.878124 330.26874 47.565624Q329.175 48.253124 327.7531 48.253124Q325.6125 48.253124 324.26874 46.753124Q322.9406 45.253124 322.9406 42.8L322.9406 42.675ZM324.7531 42.878124Q324.7531 44.64375 325.5656 45.70625Q326.39374 46.76875 327.7531 46.76875Q329.1281 46.76875 329.9406 45.690624Q330.7531 44.6125 330.7531 42.675Q330.7531 40.925 329.925 39.846874Q329.09686 38.76875 327.7375 38.76875Q326.39374 38.76875 325.5656 39.83125Q324.7531 40.89375 324.7531 42.878124ZM339.51874 39.096874Q339.1125 39.034374 338.64374 39.034374Q336.8625 39.034374 336.22186 40.55L336.22186 48.05L334.425 48.05L334.425 37.4875L336.175 37.4875L336.20624 38.70625Q337.09686 37.284374 338.72186 37.284374Q339.2531 37.284374 339.51874 37.425L339.51874 39.096874ZM343.8625 34.925L343.8625 37.4875L345.84686 37.4875L345.84686 38.878124L343.8625 38.878124L343.8625 45.425Q343.8625 46.065624 344.1281 46.39375Q344.39374 46.70625 345.03436 46.70625Q345.34686 46.70625 345.89374 46.58125L345.89374 48.05Q345.175 48.253124 344.5031 48.253124Q343.3 48.253124 342.675 47.51875Q342.0656 46.784374 342.0656 45.425L342.0656 38.878124L340.14374 38.878124L340.14374 37.4875L342.0656 37.4875L342.0656 34.925L343.8625 34.925ZM356.7375 41.471874L350.58124 41.471874L350.58124 46.51875L357.7375 46.51875L357.7375 48.05L348.70624 48.05L348.70624 33.83125L357.64374 33.83125L357.64374 35.378124L350.58124 35.378124L350.58124 39.940624L356.7375 39.940624L356.7375 41.471874ZM361.1281 37.4875L361.1906 38.815624Q362.39374 37.284374 364.34686 37.284374Q367.70624 37.284374 367.72186 41.065624L367.72186 48.05L365.925 48.05L365.925 41.05Q365.90936 39.909374 365.39374 39.3625Q364.89374 38.815624 363.8 38.815624Q362.925 38.815624 362.2531 39.284374Q361.59686 39.753124 361.22186 40.51875L361.22186 48.05L359.425 48.05L359.425 37.4875L361.1281 37.4875ZM372.22186 38.76875Q373.425 37.284374 375.34686 37.284374Q378.70624 37.284374 378.72186 41.065624L378.72186 48.05L376.925 48.05L376.925 41.05Q376.90936 39.909374 376.39374 39.3625Q375.89374 38.815624 374.8 38.815624Q373.925 38.815624 373.2531 39.284374Q372.59686 39.753124 372.22186 40.51875L372.22186 48.05L370.425 48.05L370.425 33.05L372.22186 33.05L372.22186 38.76875ZM387.9406 48.05Q387.78436 47.7375 387.6906 46.940624Q386.425 48.253124 384.675 48.253124Q383.1125 48.253124 382.1125 47.3625Q381.1125 46.471874 381.1125 45.1125Q381.1125 43.471874 382.3625 42.565624Q383.6281 41.64375 385.89374 41.64375L387.65936 41.64375L387.65936 40.815624Q387.65936 39.8625 387.08124 39.3Q386.51874 38.7375 385.425 38.7375Q384.45624 38.7375 383.8 39.2375Q383.14374 39.721874 383.14374 40.409374L381.33124 40.409374Q381.33124 39.628124 381.89374 38.89375Q382.45624 38.14375 383.40936 37.721874Q384.3781 37.284374 385.53436 37.284374Q387.3625 37.284374 388.39374 38.20625Q389.425 39.1125 389.47186 40.721874L389.47186 45.58125Q389.47186 47.034374 389.83124 47.89375L389.83124 48.05L387.9406 48.05ZM384.9406 46.675Q385.8 46.675 386.55 46.2375Q387.3156 45.8 387.65936 45.096874L387.65936 42.925L386.2375 42.925Q382.925 42.925 382.925 44.8625Q382.925 45.721874 383.4875 46.20625Q384.05 46.675 384.9406 46.675ZM394.1281 37.4875L394.1906 38.815624Q395.39374 37.284374 397.34686 37.284374Q400.70624 37.284374 400.72186 41.065624L400.72186 48.05L398.925 48.05L398.925 41.05Q398.90936 39.909374 398.39374 39.3625Q397.89374 38.815624 396.8 38.815624Q395.925 38.815624 395.2531 39.284374Q394.59686 39.753124 394.22186 40.51875L394.22186 48.05L392.425 48.05L392.425 37.4875L394.1281 37.4875ZM407.65936 46.76875Q408.6281 46.76875 409.34686 46.190624Q410.0656 45.596874 410.14374 44.721874L411.8625 44.721874Q411.8 45.628124 411.22186 46.45625Q410.65936 47.26875 409.6906 47.76875Q408.7375 48.253124 407.65936 48.253124Q405.5031 48.253124 404.22186 46.815624Q402.95624 45.3625 402.95624 42.8625L402.95624 42.565624Q402.95624 41.01875 403.51874 39.815624Q404.08124 38.6125 405.14374 37.95625Q406.20624 37.284374 407.64374 37.284374Q409.425 37.284374 410.59686 38.346874Q411.78436 39.409374 411.8625 41.1125L410.14374 41.1125Q410.0656 40.096874 409.3625 39.440624Q408.675 38.76875 407.64374 38.76875Q406.26874 38.76875 405.5031 39.76875Q404.7531 40.753124 404.7531 42.628124L404.7531 42.971874Q404.7531 44.8 405.5031 45.784374Q406.2531 46.76875 407.65936 46.76875ZM417.8 48.253124Q415.65936 48.253124 414.3 46.846874Q412.95624 45.425 412.95624 43.065624L412.95624 42.721874Q412.95624 41.159374 413.55 39.925Q414.15936 38.690624 415.2375 37.9875Q416.3156 37.284374 417.58124 37.284374Q419.64374 37.284374 420.78436 38.64375Q421.925 40.003124 421.925 42.534374L421.925 43.284374L414.76874 43.284374Q414.8 44.846874 415.675 45.815624Q416.55 46.76875 417.89374 46.76875Q418.8625 46.76875 419.51874 46.378124Q420.1906 45.9875 420.6906 45.346874L421.78436 46.20625Q420.45624 48.253124 417.8 48.253124ZM417.58124 38.76875Q416.4875 38.76875 415.7375 39.565624Q415.0031 40.3625 414.83124 41.8L420.1125 41.8L420.1125 41.659374Q420.03436 40.284374 419.3625 39.534374Q418.70624 38.76875 417.58124 38.76875ZM423.97186 42.675Q423.97186 40.253124 425.1281 38.76875Q426.28436 37.284374 428.14374 37.284374Q430.0031 37.284374 431.08124 38.55L431.08124 33.05L432.89374 33.05L432.89374 48.05L431.2375 48.05L431.14374 46.909374Q430.0656 48.253124 428.1281 48.253124Q426.3 48.253124 425.1281 46.753124Q423.97186 45.2375 423.97186 42.815624L423.97186 42.675ZM425.78436 42.878124Q425.78436 44.675 426.51874 45.690624Q427.26874 46.70625 428.58124 46.70625Q430.3 46.70625 431.08124 45.175L431.08124 40.315624Q430.28436 38.815624 428.59686 38.815624Q427.26874 38.815624 426.51874 39.846874Q425.78436 40.878124 425.78436 42.878124Z" fill-rule="nonzero"/></svg>